<svg width="588" height="163" viewBox="0 0 588 163" fill="none" xmlns="http://www.w3.org/2000/svg">
<g filter="url(#filter0_d_1085_56500)">
<rect x="312" y="102" width="120" height="58" rx="11" fill="#23134D"/>
</g>
<g filter="url(#filter1_i_1085_56500)">
<rect x="312" y="101" width="120" height="56" rx="11" fill="url(#paint0_linear_1085_56500)"/>
</g>
<rect x="313.5" y="102.5" width="117" height="53" rx="9.5" stroke="#4B3B75" stroke-width="3"/>
<rect x="317.5" y="106.5" width="109" height="45" rx="5.5" stroke="url(#paint1_linear_1085_56500)" stroke-opacity="0.8"/>
<g style="mix-blend-mode:multiply">
<rect x="317.5" y="106.5" width="109" height="45" rx="5.5" stroke="url(#paint2_linear_1085_56500)" stroke-opacity="0.5"/>
</g>
<g filter="url(#filter2_d_1085_56500)">
<path d="M381.725 127.891C382.996 128.595 382.996 130.404 381.725 131.108L364.097 140.869C362.854 141.557 361.321 140.669 361.321 139.26L361.321 119.739C361.321 118.33 362.854 117.442 364.097 118.13L381.725 127.891Z" fill="white"/>
</g>
<g filter="url(#filter3_d_1085_56500)">
<rect x="468" y="102" width="120" height="58" rx="11" fill="#23134D"/>
</g>
<g filter="url(#filter4_i_1085_56500)">
<rect x="468" y="101" width="120" height="56" rx="11" fill="url(#paint3_linear_1085_56500)"/>
</g>
<rect x="469.5" y="102.5" width="117" height="53" rx="9.5" stroke="#4B3B75" stroke-width="3"/>
<rect x="473.5" y="106.5" width="109" height="45" rx="5.5" stroke="url(#paint4_linear_1085_56500)" stroke-opacity="0.8"/>
<g style="mix-blend-mode:multiply">
<rect x="473.5" y="106.5" width="109" height="45" rx="5.5" stroke="url(#paint5_linear_1085_56500)" stroke-opacity="0.5"/>
</g>
<g filter="url(#filter5_d_1085_56500)">
<path d="M493.993 141H489.343C488.593 141 488.263 140.67 488.263 139.92V120.48C488.263 119.73 488.593 119.4 489.343 119.4H498.523C503.983 119.4 505.603 121.77 505.603 125.25V129.09C505.603 132.57 503.983 134.94 498.523 134.94H495.073V139.92C495.073 140.67 494.743 141 493.993 141ZM495.013 125.01V129.54H497.713C498.883 129.54 499.123 128.85 499.123 128.07V126.48C499.123 125.7 498.883 125.01 497.713 125.01H495.013ZM525.063 141H509.793C509.043 141 508.713 140.67 508.713 139.92V120.48C508.713 119.73 509.043 119.4 509.793 119.4H514.443C515.193 119.4 515.523 119.73 515.523 120.48V135.33H519.633V130.47C519.633 129.72 519.963 129.39 520.713 129.39H525.063C525.813 129.39 526.143 129.72 526.143 130.47V139.92C526.143 140.67 525.813 141 525.063 141ZM537.402 125.7L535.992 130.26H540.702L539.292 125.7C539.142 125.34 538.962 125.19 538.722 125.19H537.972C537.732 125.19 537.552 125.34 537.402 125.7ZM535.692 139.92C535.692 140.67 535.362 141 534.612 141H530.202C529.452 141 529.122 140.67 529.122 139.92V132C529.122 130.8 529.482 129.3 530.292 127.2L532.902 120.39C533.142 119.7 533.622 119.4 534.432 119.4H542.502C543.282 119.4 543.762 119.7 544.002 120.39L546.612 127.2C547.422 129.3 547.782 130.8 547.782 132V139.92C547.782 140.67 547.452 141 546.702 141H542.172C541.362 141 541.002 140.67 541.002 139.92V135.72H535.692V139.92ZM561.674 141H556.814C556.034 141 555.734 140.67 555.734 139.92V136.08L551.144 129.93C550.214 128.7 550.004 128.1 550.004 126.24V120.48C550.004 119.73 550.334 119.4 551.084 119.4H555.704C556.454 119.4 556.784 119.73 556.784 120.48V125.4C556.784 125.82 556.784 126.24 557.054 126.66L558.434 128.82C558.644 129.18 558.824 129.33 559.154 129.33H559.454C559.784 129.33 559.964 129.18 560.174 128.82L561.554 126.66C561.824 126.24 561.824 125.82 561.824 125.4V120.48C561.824 119.73 562.154 119.4 562.904 119.4H567.374C568.124 119.4 568.454 119.73 568.454 120.48V126.24C568.454 128.1 568.214 128.7 567.314 129.93L562.754 136.11V139.92C562.754 140.67 562.424 141 561.674 141Z" fill="white"/>
</g>
<g filter="url(#filter6_d_1085_56500)">
<rect x="312" y="7" width="120" height="58" rx="11" fill="#23134D"/>
</g>
<g filter="url(#filter7_i_1085_56500)">
<rect x="312" y="6" width="120" height="56" rx="11" fill="url(#paint6_linear_1085_56500)"/>
</g>
<rect x="313.5" y="7.5" width="117" height="53" rx="9.5" stroke="#4B3B75" stroke-width="3"/>
<rect x="317.5" y="11.5" width="109" height="45" rx="5.5" stroke="url(#paint7_linear_1085_56500)" stroke-opacity="0.8"/>
<g style="mix-blend-mode:multiply">
<rect x="317.5" y="11.5" width="109" height="45" rx="5.5" stroke="url(#paint8_linear_1085_56500)" stroke-opacity="0.5"/>
</g>
<g filter="url(#filter8_d_1085_56500)">
<rect y="99" width="120" height="61" rx="11" fill="#23134D"/>
</g>
<g filter="url(#filter9_i_1085_56500)">
<rect y="98" width="120" height="56" rx="11" fill="url(#paint9_linear_1085_56500)"/>
</g>
<rect x="1.5" y="99.5" width="117" height="53" rx="9.5" stroke="#4B3B75" stroke-width="3"/>
<rect x="5.5" y="103.5" width="109" height="45" rx="5.5" stroke="url(#paint10_linear_1085_56500)" stroke-opacity="0.8"/>
<g style="mix-blend-mode:multiply">
<rect x="5.5" y="103.5" width="109" height="45" rx="5.5" stroke="url(#paint11_linear_1085_56500)" stroke-opacity="0.5"/>
</g>
<g filter="url(#filter10_d_1085_56500)">
<path d="M69.7248 126.391C70.9963 127.095 70.9963 128.904 69.7248 129.608L52.0971 139.369C50.8541 140.057 49.3213 139.169 49.3213 137.76L49.3213 118.239C49.3213 116.83 50.8541 115.942 52.0971 116.63L69.7248 126.391Z" fill="white"/>
</g>
<g filter="url(#filter11_d_1085_56500)">
<rect x="156" y="99" width="120" height="61" rx="11" fill="#23134D"/>
</g>
<g filter="url(#filter12_i_1085_56500)">
<rect x="156" y="98" width="120" height="56" rx="11" fill="url(#paint12_linear_1085_56500)"/>
</g>
<rect x="157.5" y="99.5" width="117" height="53" rx="9.5" stroke="#4B3B75" stroke-width="3"/>
<rect x="161.5" y="103.5" width="109" height="45" rx="5.5" stroke="url(#paint13_linear_1085_56500)" stroke-opacity="0.8"/>
<g style="mix-blend-mode:multiply">
<rect x="161.5" y="103.5" width="109" height="45" rx="5.5" stroke="url(#paint14_linear_1085_56500)" stroke-opacity="0.5"/>
</g>
<g filter="url(#filter13_d_1085_56500)">
<path d="M181.993 137H177.343C176.593 137 176.263 136.67 176.263 135.92V116.48C176.263 115.73 176.593 115.4 177.343 115.4H186.523C191.983 115.4 193.603 117.77 193.603 121.25V125.09C193.603 128.57 191.983 130.94 186.523 130.94H183.073V135.92C183.073 136.67 182.743 137 181.993 137ZM183.013 121.01V125.54H185.713C186.883 125.54 187.123 124.85 187.123 124.07V122.48C187.123 121.7 186.883 121.01 185.713 121.01H183.013ZM213.063 137H197.793C197.043 137 196.713 136.67 196.713 135.92V116.48C196.713 115.73 197.043 115.4 197.793 115.4H202.443C203.193 115.4 203.523 115.73 203.523 116.48V131.33H207.633V126.47C207.633 125.72 207.963 125.39 208.713 125.39H213.063C213.813 125.39 214.143 125.72 214.143 126.47V135.92C214.143 136.67 213.813 137 213.063 137ZM225.402 121.7L223.992 126.26H228.702L227.292 121.7C227.142 121.34 226.962 121.19 226.722 121.19H225.972C225.732 121.19 225.552 121.34 225.402 121.7ZM223.692 135.92C223.692 136.67 223.362 137 222.612 137H218.202C217.452 137 217.122 136.67 217.122 135.92V128C217.122 126.8 217.482 125.3 218.292 123.2L220.902 116.39C221.142 115.7 221.622 115.4 222.432 115.4H230.502C231.282 115.4 231.762 115.7 232.002 116.39L234.612 123.2C235.422 125.3 235.782 126.8 235.782 128V135.92C235.782 136.67 235.452 137 234.702 137H230.172C229.362 137 229.002 136.67 229.002 135.92V131.72H223.692V135.92ZM249.674 137H244.814C244.034 137 243.734 136.67 243.734 135.92V132.08L239.144 125.93C238.214 124.7 238.004 124.1 238.004 122.24V116.48C238.004 115.73 238.334 115.4 239.084 115.4H243.704C244.454 115.4 244.784 115.73 244.784 116.48V121.4C244.784 121.82 244.784 122.24 245.054 122.66L246.434 124.82C246.644 125.18 246.824 125.33 247.154 125.33H247.454C247.784 125.33 247.964 125.18 248.174 124.82L249.554 122.66C249.824 122.24 249.824 121.82 249.824 121.4V116.48C249.824 115.73 250.154 115.4 250.904 115.4H255.374C256.124 115.4 256.454 115.73 256.454 116.48V122.24C256.454 124.1 256.214 124.7 255.314 125.93L250.754 132.11V135.92C250.754 136.67 250.424 137 249.674 137Z" fill="white"/>
</g>
<g filter="url(#filter14_d_1085_56500)">
<rect y="1" width="120" height="61" rx="11" fill="#23134D"/>
</g>
<g filter="url(#filter15_i_1085_56500)">
<rect width="120" height="56" rx="11" fill="url(#paint15_linear_1085_56500)"/>
</g>
<rect x="1.5" y="1.5" width="117" height="53" rx="9.5" stroke="#4B3B75" stroke-width="3"/>
<rect x="5.5" y="5.5" width="109" height="45" rx="5.5" stroke="url(#paint16_linear_1085_56500)" stroke-opacity="0.8"/>
<g style="mix-blend-mode:multiply">
<rect x="5.5" y="5.5" width="109" height="45" rx="5.5" stroke="url(#paint17_linear_1085_56500)" stroke-opacity="0.5"/>
</g>
<defs>
<filter id="filter0_d_1085_56500" x="312" y="102" width="120" height="61" filterUnits="userSpaceOnUse" color-interpolation-filters="sRGB">
<feFlood flood-opacity="0" result="BackgroundImageFix"/>
<feColorMatrix in="SourceAlpha" type="matrix" values="0 0 0 0 0 0 0 0 0 0 0 0 0 0 0 0 0 0 127 0" result="hardAlpha"/>
<feOffset dy="3"/>
<feComposite in2="hardAlpha" operator="out"/>
<feColorMatrix type="matrix" values="0 0 0 0 0 0 0 0 0 0 0 0 0 0 0 0 0 0 0.25 0"/>
<feBlend mode="normal" in2="BackgroundImageFix" result="effect1_dropShadow_1085_56500"/>
<feBlend mode="normal" in="SourceGraphic" in2="effect1_dropShadow_1085_56500" result="shape"/>
</filter>
<filter id="filter1_i_1085_56500" x="312" y="101" width="120" height="56" filterUnits="userSpaceOnUse" color-interpolation-filters="sRGB">
<feFlood flood-opacity="0" result="BackgroundImageFix"/>
<feBlend mode="normal" in="SourceGraphic" in2="BackgroundImageFix" result="shape"/>
<feColorMatrix in="SourceAlpha" type="matrix" values="0 0 0 0 0 0 0 0 0 0 0 0 0 0 0 0 0 0 127 0" result="hardAlpha"/>
<feMorphology radius="5" operator="erode" in="SourceAlpha" result="effect1_innerShadow_1085_56500"/>
<feOffset/>
<feComposite in2="hardAlpha" operator="arithmetic" k2="-1" k3="1"/>
<feColorMatrix type="matrix" values="0 0 0 0 1 0 0 0 0 1 0 0 0 0 1 0 0 0 0.1 0"/>
<feBlend mode="normal" in2="shape" result="effect1_innerShadow_1085_56500"/>
</filter>
<filter id="filter2_d_1085_56500" x="360.857" y="117.893" width="22.286" height="24.1429" filterUnits="userSpaceOnUse" color-interpolation-filters="sRGB">
<feFlood flood-opacity="0" result="BackgroundImageFix"/>
<feColorMatrix in="SourceAlpha" type="matrix" values="0 0 0 0 0 0 0 0 0 0 0 0 0 0 0 0 0 0 127 0" result="hardAlpha"/>
<feOffset dy="0.464286"/>
<feGaussianBlur stdDeviation="0.232143"/>
<feComposite in2="hardAlpha" operator="out"/>
<feColorMatrix type="matrix" values="0 0 0 0 0.309804 0 0 0 0 0.380392 0 0 0 0 0.831373 0 0 0 1 0"/>
<feBlend mode="normal" in2="BackgroundImageFix" result="effect1_dropShadow_1085_56500"/>
<feBlend mode="normal" in="SourceGraphic" in2="effect1_dropShadow_1085_56500" result="shape"/>
</filter>
<filter id="filter3_d_1085_56500" x="468" y="102" width="120" height="61" filterUnits="userSpaceOnUse" color-interpolation-filters="sRGB">
<feFlood flood-opacity="0" result="BackgroundImageFix"/>
<feColorMatrix in="SourceAlpha" type="matrix" values="0 0 0 0 0 0 0 0 0 0 0 0 0 0 0 0 0 0 127 0" result="hardAlpha"/>
<feOffset dy="3"/>
<feComposite in2="hardAlpha" operator="out"/>
<feColorMatrix type="matrix" values="0 0 0 0 0 0 0 0 0 0 0 0 0 0 0 0 0 0 0.25 0"/>
<feBlend mode="normal" in2="BackgroundImageFix" result="effect1_dropShadow_1085_56500"/>
<feBlend mode="normal" in="SourceGraphic" in2="effect1_dropShadow_1085_56500" result="shape"/>
</filter>
<filter id="filter4_i_1085_56500" x="468" y="101" width="120" height="56" filterUnits="userSpaceOnUse" color-interpolation-filters="sRGB">
<feFlood flood-opacity="0" result="BackgroundImageFix"/>
<feBlend mode="normal" in="SourceGraphic" in2="BackgroundImageFix" result="shape"/>
<feColorMatrix in="SourceAlpha" type="matrix" values="0 0 0 0 0 0 0 0 0 0 0 0 0 0 0 0 0 0 127 0" result="hardAlpha"/>
<feMorphology radius="5" operator="erode" in="SourceAlpha" result="effect1_innerShadow_1085_56500"/>
<feOffset/>
<feComposite in2="hardAlpha" operator="arithmetic" k2="-1" k3="1"/>
<feColorMatrix type="matrix" values="0 0 0 0 1 0 0 0 0 1 0 0 0 0 1 0 0 0 0.1 0"/>
<feBlend mode="normal" in2="shape" result="effect1_innerShadow_1085_56500"/>
</filter>
<filter id="filter5_d_1085_56500" x="487.264" y="119.4" width="82.1904" height="23.6001" filterUnits="userSpaceOnUse" color-interpolation-filters="sRGB">
<feFlood flood-opacity="0" result="BackgroundImageFix"/>
<feColorMatrix in="SourceAlpha" type="matrix" values="0 0 0 0 0 0 0 0 0 0 0 0 0 0 0 0 0 0 127 0" result="hardAlpha"/>
<feOffset dy="1"/>
<feGaussianBlur stdDeviation="0.5"/>
<feComposite in2="hardAlpha" operator="out"/>
<feColorMatrix type="matrix" values="0 0 0 0 0.309804 0 0 0 0 0.380392 0 0 0 0 0.831373 0 0 0 1 0"/>
<feBlend mode="normal" in2="BackgroundImageFix" result="effect1_dropShadow_1085_56500"/>
<feBlend mode="normal" in="SourceGraphic" in2="effect1_dropShadow_1085_56500" result="shape"/>
</filter>
<filter id="filter6_d_1085_56500" x="312" y="7" width="120" height="61" filterUnits="userSpaceOnUse" color-interpolation-filters="sRGB">
<feFlood flood-opacity="0" result="BackgroundImageFix"/>
<feColorMatrix in="SourceAlpha" type="matrix" values="0 0 0 0 0 0 0 0 0 0 0 0 0 0 0 0 0 0 127 0" result="hardAlpha"/>
<feOffset dy="3"/>
<feComposite in2="hardAlpha" operator="out"/>
<feColorMatrix type="matrix" values="0 0 0 0 0 0 0 0 0 0 0 0 0 0 0 0 0 0 0.25 0"/>
<feBlend mode="normal" in2="BackgroundImageFix" result="effect1_dropShadow_1085_56500"/>
<feBlend mode="normal" in="SourceGraphic" in2="effect1_dropShadow_1085_56500" result="shape"/>
</filter>
<filter id="filter7_i_1085_56500" x="312" y="6" width="120" height="56" filterUnits="userSpaceOnUse" color-interpolation-filters="sRGB">
<feFlood flood-opacity="0" result="BackgroundImageFix"/>
<feBlend mode="normal" in="SourceGraphic" in2="BackgroundImageFix" result="shape"/>
<feColorMatrix in="SourceAlpha" type="matrix" values="0 0 0 0 0 0 0 0 0 0 0 0 0 0 0 0 0 0 127 0" result="hardAlpha"/>
<feMorphology radius="5" operator="erode" in="SourceAlpha" result="effect1_innerShadow_1085_56500"/>
<feOffset/>
<feComposite in2="hardAlpha" operator="arithmetic" k2="-1" k3="1"/>
<feColorMatrix type="matrix" values="0 0 0 0 1 0 0 0 0 1 0 0 0 0 1 0 0 0 0.1 0"/>
<feBlend mode="normal" in2="shape" result="effect1_innerShadow_1085_56500"/>
</filter>
<filter id="filter8_d_1085_56500" x="0" y="99" width="120" height="64" filterUnits="userSpaceOnUse" color-interpolation-filters="sRGB">
<feFlood flood-opacity="0" result="BackgroundImageFix"/>
<feColorMatrix in="SourceAlpha" type="matrix" values="0 0 0 0 0 0 0 0 0 0 0 0 0 0 0 0 0 0 127 0" result="hardAlpha"/>
<feOffset dy="3"/>
<feComposite in2="hardAlpha" operator="out"/>
<feColorMatrix type="matrix" values="0 0 0 0 0 0 0 0 0 0 0 0 0 0 0 0 0 0 0.25 0"/>
<feBlend mode="normal" in2="BackgroundImageFix" result="effect1_dropShadow_1085_56500"/>
<feBlend mode="normal" in="SourceGraphic" in2="effect1_dropShadow_1085_56500" result="shape"/>
</filter>
<filter id="filter9_i_1085_56500" x="0" y="98" width="120" height="56" filterUnits="userSpaceOnUse" color-interpolation-filters="sRGB">
<feFlood flood-opacity="0" result="BackgroundImageFix"/>
<feBlend mode="normal" in="SourceGraphic" in2="BackgroundImageFix" result="shape"/>
<feColorMatrix in="SourceAlpha" type="matrix" values="0 0 0 0 0 0 0 0 0 0 0 0 0 0 0 0 0 0 127 0" result="hardAlpha"/>
<feMorphology radius="5" operator="erode" in="SourceAlpha" result="effect1_innerShadow_1085_56500"/>
<feOffset/>
<feComposite in2="hardAlpha" operator="arithmetic" k2="-1" k3="1"/>
<feColorMatrix type="matrix" values="0 0 0 0 1 0 0 0 0 1 0 0 0 0 1 0 0 0 0.1 0"/>
<feBlend mode="normal" in2="shape" result="effect1_innerShadow_1085_56500"/>
</filter>
<filter id="filter10_d_1085_56500" x="48.857" y="116.393" width="22.286" height="24.1429" filterUnits="userSpaceOnUse" color-interpolation-filters="sRGB">
<feFlood flood-opacity="0" result="BackgroundImageFix"/>
<feColorMatrix in="SourceAlpha" type="matrix" values="0 0 0 0 0 0 0 0 0 0 0 0 0 0 0 0 0 0 127 0" result="hardAlpha"/>
<feOffset dy="0.464286"/>
<feGaussianBlur stdDeviation="0.232143"/>
<feComposite in2="hardAlpha" operator="out"/>
<feColorMatrix type="matrix" values="0 0 0 0 0.309804 0 0 0 0 0.380392 0 0 0 0 0.831373 0 0 0 1 0"/>
<feBlend mode="normal" in2="BackgroundImageFix" result="effect1_dropShadow_1085_56500"/>
<feBlend mode="normal" in="SourceGraphic" in2="effect1_dropShadow_1085_56500" result="shape"/>
</filter>
<filter id="filter11_d_1085_56500" x="156" y="99" width="120" height="64" filterUnits="userSpaceOnUse" color-interpolation-filters="sRGB">
<feFlood flood-opacity="0" result="BackgroundImageFix"/>
<feColorMatrix in="SourceAlpha" type="matrix" values="0 0 0 0 0 0 0 0 0 0 0 0 0 0 0 0 0 0 127 0" result="hardAlpha"/>
<feOffset dy="3"/>
<feComposite in2="hardAlpha" operator="out"/>
<feColorMatrix type="matrix" values="0 0 0 0 0 0 0 0 0 0 0 0 0 0 0 0 0 0 0.25 0"/>
<feBlend mode="normal" in2="BackgroundImageFix" result="effect1_dropShadow_1085_56500"/>
<feBlend mode="normal" in="SourceGraphic" in2="effect1_dropShadow_1085_56500" result="shape"/>
</filter>
<filter id="filter12_i_1085_56500" x="156" y="98" width="120" height="56" filterUnits="userSpaceOnUse" color-interpolation-filters="sRGB">
<feFlood flood-opacity="0" result="BackgroundImageFix"/>
<feBlend mode="normal" in="SourceGraphic" in2="BackgroundImageFix" result="shape"/>
<feColorMatrix in="SourceAlpha" type="matrix" values="0 0 0 0 0 0 0 0 0 0 0 0 0 0 0 0 0 0 127 0" result="hardAlpha"/>
<feMorphology radius="5" operator="erode" in="SourceAlpha" result="effect1_innerShadow_1085_56500"/>
<feOffset/>
<feComposite in2="hardAlpha" operator="arithmetic" k2="-1" k3="1"/>
<feColorMatrix type="matrix" values="0 0 0 0 1 0 0 0 0 1 0 0 0 0 1 0 0 0 0.1 0"/>
<feBlend mode="normal" in2="shape" result="effect1_innerShadow_1085_56500"/>
</filter>
<filter id="filter13_d_1085_56500" x="175.264" y="115.4" width="82.1904" height="23.6001" filterUnits="userSpaceOnUse" color-interpolation-filters="sRGB">
<feFlood flood-opacity="0" result="BackgroundImageFix"/>
<feColorMatrix in="SourceAlpha" type="matrix" values="0 0 0 0 0 0 0 0 0 0 0 0 0 0 0 0 0 0 127 0" result="hardAlpha"/>
<feOffset dy="1"/>
<feGaussianBlur stdDeviation="0.5"/>
<feComposite in2="hardAlpha" operator="out"/>
<feColorMatrix type="matrix" values="0 0 0 0 0.309804 0 0 0 0 0.380392 0 0 0 0 0.831373 0 0 0 1 0"/>
<feBlend mode="normal" in2="BackgroundImageFix" result="effect1_dropShadow_1085_56500"/>
<feBlend mode="normal" in="SourceGraphic" in2="effect1_dropShadow_1085_56500" result="shape"/>
</filter>
<filter id="filter14_d_1085_56500" x="0" y="1" width="120" height="64" filterUnits="userSpaceOnUse" color-interpolation-filters="sRGB">
<feFlood flood-opacity="0" result="BackgroundImageFix"/>
<feColorMatrix in="SourceAlpha" type="matrix" values="0 0 0 0 0 0 0 0 0 0 0 0 0 0 0 0 0 0 127 0" result="hardAlpha"/>
<feOffset dy="3"/>
<feComposite in2="hardAlpha" operator="out"/>
<feColorMatrix type="matrix" values="0 0 0 0 0 0 0 0 0 0 0 0 0 0 0 0 0 0 0.25 0"/>
<feBlend mode="normal" in2="BackgroundImageFix" result="effect1_dropShadow_1085_56500"/>
<feBlend mode="normal" in="SourceGraphic" in2="effect1_dropShadow_1085_56500" result="shape"/>
</filter>
<filter id="filter15_i_1085_56500" x="0" y="0" width="120" height="56" filterUnits="userSpaceOnUse" color-interpolation-filters="sRGB">
<feFlood flood-opacity="0" result="BackgroundImageFix"/>
<feBlend mode="normal" in="SourceGraphic" in2="BackgroundImageFix" result="shape"/>
<feColorMatrix in="SourceAlpha" type="matrix" values="0 0 0 0 0 0 0 0 0 0 0 0 0 0 0 0 0 0 127 0" result="hardAlpha"/>
<feMorphology radius="5" operator="erode" in="SourceAlpha" result="effect1_innerShadow_1085_56500"/>
<feOffset/>
<feComposite in2="hardAlpha" operator="arithmetic" k2="-1" k3="1"/>
<feColorMatrix type="matrix" values="0 0 0 0 1 0 0 0 0 1 0 0 0 0 1 0 0 0 0.1 0"/>
<feBlend mode="normal" in2="shape" result="effect1_innerShadow_1085_56500"/>
</filter>
<linearGradient id="paint0_linear_1085_56500" x1="372" y1="101" x2="372" y2="157" gradientUnits="userSpaceOnUse">
<stop stop-color="#7684FB"/>
<stop offset="1" stop-color="#7185F9"/>
</linearGradient>
<linearGradient id="paint1_linear_1085_56500" x1="372" y1="106" x2="372" y2="152" gradientUnits="userSpaceOnUse">
<stop stop-color="white"/>
<stop offset="0.447125" stop-color="white" stop-opacity="0"/>
</linearGradient>
<linearGradient id="paint2_linear_1085_56500" x1="372" y1="106" x2="372" y2="152" gradientUnits="userSpaceOnUse">
<stop offset="0.579195" stop-color="#8F50F7" stop-opacity="0"/>
<stop offset="1" stop-color="#454CF4"/>
</linearGradient>
<linearGradient id="paint3_linear_1085_56500" x1="528" y1="101" x2="528" y2="157" gradientUnits="userSpaceOnUse">
<stop stop-color="#7684FB"/>
<stop offset="1" stop-color="#7185F9"/>
</linearGradient>
<linearGradient id="paint4_linear_1085_56500" x1="528" y1="106" x2="528" y2="152" gradientUnits="userSpaceOnUse">
<stop stop-color="white"/>
<stop offset="0.447125" stop-color="white" stop-opacity="0"/>
</linearGradient>
<linearGradient id="paint5_linear_1085_56500" x1="528" y1="106" x2="528" y2="152" gradientUnits="userSpaceOnUse">
<stop offset="0.579195" stop-color="#8F50F7" stop-opacity="0"/>
<stop offset="1" stop-color="#454CF4"/>
</linearGradient>
<linearGradient id="paint6_linear_1085_56500" x1="372" y1="6" x2="372" y2="62" gradientUnits="userSpaceOnUse">
<stop stop-color="#7684FB"/>
<stop offset="1" stop-color="#7185F9"/>
</linearGradient>
<linearGradient id="paint7_linear_1085_56500" x1="372" y1="11" x2="372" y2="57" gradientUnits="userSpaceOnUse">
<stop stop-color="white"/>
<stop offset="0.447125" stop-color="white" stop-opacity="0"/>
</linearGradient>
<linearGradient id="paint8_linear_1085_56500" x1="372" y1="11" x2="372" y2="57" gradientUnits="userSpaceOnUse">
<stop offset="0.579195" stop-color="#8F50F7" stop-opacity="0"/>
<stop offset="1" stop-color="#454CF4"/>
</linearGradient>
<linearGradient id="paint9_linear_1085_56500" x1="60" y1="98" x2="60" y2="154" gradientUnits="userSpaceOnUse">
<stop stop-color="#7684FB"/>
<stop offset="1" stop-color="#7185F9"/>
</linearGradient>
<linearGradient id="paint10_linear_1085_56500" x1="60" y1="103" x2="60" y2="149" gradientUnits="userSpaceOnUse">
<stop stop-color="white"/>
<stop offset="0.447125" stop-color="white" stop-opacity="0"/>
</linearGradient>
<linearGradient id="paint11_linear_1085_56500" x1="60" y1="103" x2="60" y2="149" gradientUnits="userSpaceOnUse">
<stop offset="0.579195" stop-color="#8F50F7" stop-opacity="0"/>
<stop offset="1" stop-color="#454CF4"/>
</linearGradient>
<linearGradient id="paint12_linear_1085_56500" x1="216" y1="98" x2="216" y2="154" gradientUnits="userSpaceOnUse">
<stop stop-color="#7684FB"/>
<stop offset="1" stop-color="#7185F9"/>
</linearGradient>
<linearGradient id="paint13_linear_1085_56500" x1="216" y1="103" x2="216" y2="149" gradientUnits="userSpaceOnUse">
<stop stop-color="white"/>
<stop offset="0.447125" stop-color="white" stop-opacity="0"/>
</linearGradient>
<linearGradient id="paint14_linear_1085_56500" x1="216" y1="103" x2="216" y2="149" gradientUnits="userSpaceOnUse">
<stop offset="0.579195" stop-color="#8F50F7" stop-opacity="0"/>
<stop offset="1" stop-color="#454CF4"/>
</linearGradient>
<linearGradient id="paint15_linear_1085_56500" x1="60" y1="0" x2="60" y2="56" gradientUnits="userSpaceOnUse">
<stop stop-color="#7684FB"/>
<stop offset="1" stop-color="#7185F9"/>
</linearGradient>
<linearGradient id="paint16_linear_1085_56500" x1="60" y1="5" x2="60" y2="51" gradientUnits="userSpaceOnUse">
<stop stop-color="white"/>
<stop offset="0.447125" stop-color="white" stop-opacity="0"/>
</linearGradient>
<linearGradient id="paint17_linear_1085_56500" x1="60" y1="5" x2="60" y2="51" gradientUnits="userSpaceOnUse">
<stop offset="0.579195" stop-color="#8F50F7" stop-opacity="0"/>
<stop offset="1" stop-color="#454CF4"/>
</linearGradient>
</defs>
</svg>
