<svg width="72" height="65" viewBox="0 0 72 65" fill="none" xmlns="http://www.w3.org/2000/svg">
<g id="Buttons-Cartoon-II/Buttons/Square-Icon-Blue/Exit-Idle">
<g id="@Fill/Square-Icon-Blue/Idle">
<g id="Rectangle" filter="url(#filter0_d_1085_54080)">
<rect width="72" height="62" rx="11" fill="#23134D"/>
</g>
<g id="Rectangle_2">
<g filter="url(#filter1_i_1085_54080)">
<rect width="72" height="56" rx="11" fill="url(#paint0_linear_1085_54080)"/>
</g>
<rect x="1.5" y="1.5" width="69" height="53" rx="9.5" stroke="#4B3B75" stroke-width="3"/>
</g>
<rect id="Rectangle_3" x="5.5" y="5.5" width="61" height="45" rx="5.5" stroke="url(#paint1_linear_1085_54080)" stroke-opacity="0.8"/>
<g id="Rectangle_4" style="mix-blend-mode:multiply">
<rect x="5.5" y="5.5" width="61" height="45" rx="5.5" stroke="url(#paint2_linear_1085_54080)" stroke-opacity="0.5"/>
</g>
</g>
<g id="Icon/Exit">
<g id="Group">
<g id="Figure" filter="url(#filter2_d_1085_54080)">
<path fill-rule="evenodd" clip-rule="evenodd" d="M28.572 20.7143V38.8215H43.4291V20.7143H28.572ZM27.6434 18.8572C27.1306 18.8572 26.7148 19.2729 26.7148 19.7857V39.75C26.7148 40.2629 27.1306 40.6786 27.6434 40.6786H44.3577C44.8705 40.6786 45.2863 40.2629 45.2863 39.75V19.7857C45.2863 19.2729 44.8705 18.8572 44.3577 18.8572H27.6434Z" fill="white"/>
</g>
<g id="Figure_2" filter="url(#filter3_d_1085_54080)">
<path fill-rule="evenodd" clip-rule="evenodd" d="M37.7165 42.5248C38.279 42.6108 38.7863 42.1783 38.7863 41.6126L38.7863 17.9231C38.7863 17.3575 38.279 16.9249 37.7165 17.0109L27.5022 18.5727C27.0492 18.642 26.7148 19.0294 26.7148 19.4849L26.7148 40.0508C26.7148 40.5063 27.0492 40.8937 27.5022 40.963L37.7165 42.5248ZM36.0006 30.6907C36.5134 30.6907 36.9291 30.2776 36.9291 29.7679C36.9291 29.2582 36.5134 28.845 36.0006 28.845C35.4877 28.845 35.072 29.2582 35.072 29.7679C35.072 30.2776 35.4877 30.6907 36.0006 30.6907Z" fill="white"/>
</g>
</g>
</g>
</g>
<defs>
<filter id="filter0_d_1085_54080" x="0" y="0" width="72" height="65" filterUnits="userSpaceOnUse" color-interpolation-filters="sRGB">
<feFlood flood-opacity="0" result="BackgroundImageFix"/>
<feColorMatrix in="SourceAlpha" type="matrix" values="0 0 0 0 0 0 0 0 0 0 0 0 0 0 0 0 0 0 127 0" result="hardAlpha"/>
<feOffset dy="3"/>
<feComposite in2="hardAlpha" operator="out"/>
<feColorMatrix type="matrix" values="0 0 0 0 0 0 0 0 0 0 0 0 0 0 0 0 0 0 0.25 0"/>
<feBlend mode="normal" in2="BackgroundImageFix" result="effect1_dropShadow_1085_54080"/>
<feBlend mode="normal" in="SourceGraphic" in2="effect1_dropShadow_1085_54080" result="shape"/>
</filter>
<filter id="filter1_i_1085_54080" x="0" y="0" width="72" height="56" filterUnits="userSpaceOnUse" color-interpolation-filters="sRGB">
<feFlood flood-opacity="0" result="BackgroundImageFix"/>
<feBlend mode="normal" in="SourceGraphic" in2="BackgroundImageFix" result="shape"/>
<feColorMatrix in="SourceAlpha" type="matrix" values="0 0 0 0 0 0 0 0 0 0 0 0 0 0 0 0 0 0 127 0" result="hardAlpha"/>
<feMorphology radius="5" operator="erode" in="SourceAlpha" result="effect1_innerShadow_1085_54080"/>
<feOffset/>
<feComposite in2="hardAlpha" operator="arithmetic" k2="-1" k3="1"/>
<feColorMatrix type="matrix" values="0 0 0 0 1 0 0 0 0 1 0 0 0 0 1 0 0 0 0.1 0"/>
<feBlend mode="normal" in2="shape" result="effect1_innerShadow_1085_54080"/>
</filter>
<filter id="filter2_d_1085_54080" x="26.2506" y="18.8572" width="19.4999" height="22.7501" filterUnits="userSpaceOnUse" color-interpolation-filters="sRGB">
<feFlood flood-opacity="0" result="BackgroundImageFix"/>
<feColorMatrix in="SourceAlpha" type="matrix" values="0 0 0 0 0 0 0 0 0 0 0 0 0 0 0 0 0 0 127 0" result="hardAlpha"/>
<feOffset dy="0.464286"/>
<feGaussianBlur stdDeviation="0.232143"/>
<feComposite in2="hardAlpha" operator="out"/>
<feColorMatrix type="matrix" values="0 0 0 0 0.309804 0 0 0 0 0.380392 0 0 0 0 0.831373 0 0 0 1 0"/>
<feBlend mode="normal" in2="BackgroundImageFix" result="effect1_dropShadow_1085_54080"/>
<feBlend mode="normal" in="SourceGraphic" in2="effect1_dropShadow_1085_54080" result="shape"/>
</filter>
<filter id="filter3_d_1085_54080" x="26.2506" y="17" width="12.9999" height="26.4642" filterUnits="userSpaceOnUse" color-interpolation-filters="sRGB">
<feFlood flood-opacity="0" result="BackgroundImageFix"/>
<feColorMatrix in="SourceAlpha" type="matrix" values="0 0 0 0 0 0 0 0 0 0 0 0 0 0 0 0 0 0 127 0" result="hardAlpha"/>
<feOffset dy="0.464286"/>
<feGaussianBlur stdDeviation="0.232143"/>
<feComposite in2="hardAlpha" operator="out"/>
<feColorMatrix type="matrix" values="0 0 0 0 0.309804 0 0 0 0 0.380392 0 0 0 0 0.831373 0 0 0 1 0"/>
<feBlend mode="normal" in2="BackgroundImageFix" result="effect1_dropShadow_1085_54080"/>
<feBlend mode="normal" in="SourceGraphic" in2="effect1_dropShadow_1085_54080" result="shape"/>
</filter>
<linearGradient id="paint0_linear_1085_54080" x1="36" y1="0" x2="36" y2="56" gradientUnits="userSpaceOnUse">
<stop stop-color="#7684FB"/>
<stop offset="1" stop-color="#7185F9"/>
</linearGradient>
<linearGradient id="paint1_linear_1085_54080" x1="36" y1="5" x2="36" y2="51" gradientUnits="userSpaceOnUse">
<stop stop-color="white"/>
<stop offset="0.447125" stop-color="white" stop-opacity="0"/>
</linearGradient>
<linearGradient id="paint2_linear_1085_54080" x1="36" y1="5" x2="36" y2="51" gradientUnits="userSpaceOnUse">
<stop offset="0.579195" stop-color="#8F50F7" stop-opacity="0"/>
<stop offset="1" stop-color="#454CF4"/>
</linearGradient>
</defs>
</svg>
