<svg width="72" height="65" viewBox="0 0 72 65" fill="none" xmlns="http://www.w3.org/2000/svg">
<g id="Buttons-Cartoon-II/Buttons/Square-Icon-Blue/Locker-Unlocked-Idle">
<g id="@Fill/Square-Icon-Blue/Idle">
<g id="Rectangle" filter="url(#filter0_d_1085_54127)">
<rect width="72" height="62" rx="11" fill="#23134D"/>
</g>
<g id="Rectangle_2">
<g filter="url(#filter1_i_1085_54127)">
<rect width="72" height="56" rx="11" fill="url(#paint0_linear_1085_54127)"/>
</g>
<rect x="1.5" y="1.5" width="69" height="53" rx="9.5" stroke="#4B3B75" stroke-width="3"/>
</g>
<rect id="Rectangle_3" x="5.5" y="5.5" width="61" height="45" rx="5.5" stroke="url(#paint1_linear_1085_54127)" stroke-opacity="0.8"/>
<g id="Rectangle_4" style="mix-blend-mode:multiply">
<rect x="5.5" y="5.5" width="61" height="45" rx="5.5" stroke="url(#paint2_linear_1085_54127)" stroke-opacity="0.5"/>
</g>
</g>
<g id="Icon/Locker-Unlocked">
<g id="Group">
<g id="Union" filter="url(#filter2_d_1085_54127)">
<path fill-rule="evenodd" clip-rule="evenodd" d="M30.4291 17C29.9163 17 29.5006 17.4157 29.5006 17.9286V24.4286H27.6434C27.1306 24.4286 26.7148 24.8443 26.7148 25.3571V42.0714C26.7148 42.5843 27.1306 43 27.6434 43H44.3577C44.8705 43 45.2863 42.5843 45.2863 42.0714V25.3571C45.2863 24.8443 44.8705 24.4286 44.3577 24.4286H32.2863V19.7857H39.7148V21.1786C39.7148 21.6914 40.1306 22.1071 40.6434 22.1071H41.572C42.0848 22.1071 42.5006 21.6914 42.5006 21.1786V17.9286C42.5006 17.4157 42.0848 17 41.572 17H30.4291ZM33.6791 32.3214C33.6791 31.8086 34.0949 31.3929 34.6077 31.3929H37.3934C37.9063 31.3929 38.322 31.8086 38.322 32.3214V35.1071C38.322 35.62 37.9063 36.0357 37.3934 36.0357H34.6077C34.0949 36.0357 33.6791 35.62 33.6791 35.1071V32.3214Z" fill="white"/>
</g>
</g>
</g>
</g>
<defs>
<filter id="filter0_d_1085_54127" x="0" y="0" width="72" height="65" filterUnits="userSpaceOnUse" color-interpolation-filters="sRGB">
<feFlood flood-opacity="0" result="BackgroundImageFix"/>
<feColorMatrix in="SourceAlpha" type="matrix" values="0 0 0 0 0 0 0 0 0 0 0 0 0 0 0 0 0 0 127 0" result="hardAlpha"/>
<feOffset dy="3"/>
<feComposite in2="hardAlpha" operator="out"/>
<feColorMatrix type="matrix" values="0 0 0 0 0 0 0 0 0 0 0 0 0 0 0 0 0 0 0.25 0"/>
<feBlend mode="normal" in2="BackgroundImageFix" result="effect1_dropShadow_1085_54127"/>
<feBlend mode="normal" in="SourceGraphic" in2="effect1_dropShadow_1085_54127" result="shape"/>
</filter>
<filter id="filter1_i_1085_54127" x="0" y="0" width="72" height="56" filterUnits="userSpaceOnUse" color-interpolation-filters="sRGB">
<feFlood flood-opacity="0" result="BackgroundImageFix"/>
<feBlend mode="normal" in="SourceGraphic" in2="BackgroundImageFix" result="shape"/>
<feColorMatrix in="SourceAlpha" type="matrix" values="0 0 0 0 0 0 0 0 0 0 0 0 0 0 0 0 0 0 127 0" result="hardAlpha"/>
<feMorphology radius="5" operator="erode" in="SourceAlpha" result="effect1_innerShadow_1085_54127"/>
<feOffset/>
<feComposite in2="hardAlpha" operator="arithmetic" k2="-1" k3="1"/>
<feColorMatrix type="matrix" values="0 0 0 0 1 0 0 0 0 1 0 0 0 0 1 0 0 0 0.1 0"/>
<feBlend mode="normal" in2="shape" result="effect1_innerShadow_1085_54127"/>
</filter>
<filter id="filter2_d_1085_54127" x="26.2506" y="17" width="19.4999" height="26.9286" filterUnits="userSpaceOnUse" color-interpolation-filters="sRGB">
<feFlood flood-opacity="0" result="BackgroundImageFix"/>
<feColorMatrix in="SourceAlpha" type="matrix" values="0 0 0 0 0 0 0 0 0 0 0 0 0 0 0 0 0 0 127 0" result="hardAlpha"/>
<feOffset dy="0.464286"/>
<feGaussianBlur stdDeviation="0.232143"/>
<feComposite in2="hardAlpha" operator="out"/>
<feColorMatrix type="matrix" values="0 0 0 0 0.309804 0 0 0 0 0.380392 0 0 0 0 0.831373 0 0 0 1 0"/>
<feBlend mode="normal" in2="BackgroundImageFix" result="effect1_dropShadow_1085_54127"/>
<feBlend mode="normal" in="SourceGraphic" in2="effect1_dropShadow_1085_54127" result="shape"/>
</filter>
<linearGradient id="paint0_linear_1085_54127" x1="36" y1="0" x2="36" y2="56" gradientUnits="userSpaceOnUse">
<stop stop-color="#7684FB"/>
<stop offset="1" stop-color="#7185F9"/>
</linearGradient>
<linearGradient id="paint1_linear_1085_54127" x1="36" y1="5" x2="36" y2="51" gradientUnits="userSpaceOnUse">
<stop stop-color="white"/>
<stop offset="0.447125" stop-color="white" stop-opacity="0"/>
</linearGradient>
<linearGradient id="paint2_linear_1085_54127" x1="36" y1="5" x2="36" y2="51" gradientUnits="userSpaceOnUse">
<stop offset="0.579195" stop-color="#8F50F7" stop-opacity="0"/>
<stop offset="1" stop-color="#454CF4"/>
</linearGradient>
</defs>
</svg>
