<svg width="72" height="62" viewBox="0 0 72 62" fill="none" xmlns="http://www.w3.org/2000/svg">
<g id="Buttons-Cartoon-II/Buttons/Square-Icon-Blue/Music-Off-Click">
<g id="@Fill/Square-Icon-Blue/Click">
<g id="Rectangle" filter="url(#filter0_d_1085_53648)">
<rect width="72" height="59" rx="11" fill="#23134D"/>
</g>
<g id="Rectangle_2">
<g filter="url(#filter1_i_1085_53648)">
<rect width="72" height="56" rx="11" fill="url(#paint0_linear_1085_53648)"/>
</g>
<rect x="1.5" y="1.5" width="69" height="53" rx="9.5" stroke="#4B3B75" stroke-width="3"/>
</g>
<rect id="Rectangle_3" x="5.5" y="5.5" width="61" height="45" rx="5.5" stroke="url(#paint1_linear_1085_53648)" stroke-opacity="0.8"/>
<g id="Rectangle_4" style="mix-blend-mode:multiply">
<rect x="5.5" y="5.5" width="61" height="45" rx="5.5" stroke="url(#paint2_linear_1085_53648)" stroke-opacity="0.5"/>
</g>
</g>
<g id="Icon/Music-Off">
<g id="Group">
<g id="Figure" filter="url(#filter2_d_1085_53648)">
<path d="M31.3877 15.5H47.6377V30.8214H47.6169C47.6307 30.9743 47.6377 31.1292 47.6377 31.2857C47.6377 32.9735 46.819 34.4701 45.557 35.4L38.4163 28.2593C39.3462 26.9973 40.8427 26.1786 42.5306 26.1786C43.0134 26.1786 43.4806 26.2456 43.9234 26.3708V22H35.102V24.945L31.3877 21.2307V15.5Z" fill="white"/>
<path d="M31.3877 26.4835V31.478C30.9449 31.3527 30.4777 31.2857 29.9948 31.2857C27.1742 31.2857 24.8877 33.5723 24.8877 36.3929C24.8877 39.2135 27.1742 41.5 29.9948 41.5C32.8154 41.5 35.102 39.2135 35.102 36.3929C35.102 36.2364 35.0949 36.0815 35.0812 35.9286H35.102V30.1978L31.3877 26.4835Z" fill="white"/>
<path d="M37.6289 32.7247C38.1165 34.3883 39.428 35.6997 41.0915 36.1873L37.6289 32.7247Z" fill="white"/>
</g>
<g id="Rectangle_5" filter="url(#filter3_d_1085_53648)">
<path d="M24.4481 16.8773C24.8107 16.5147 25.3994 16.514 25.762 16.8766L47.4298 38.5444C47.7924 38.907 47.7917 39.4956 47.4291 39.8583C47.0664 40.2209 46.4778 40.2216 46.1152 39.859L24.4474 18.1912C24.0848 17.8286 24.0855 17.2399 24.4481 16.8773Z" fill="white"/>
</g>
</g>
</g>
</g>
<defs>
<filter id="filter0_d_1085_53648" x="0" y="0" width="72" height="62" filterUnits="userSpaceOnUse" color-interpolation-filters="sRGB">
<feFlood flood-opacity="0" result="BackgroundImageFix"/>
<feColorMatrix in="SourceAlpha" type="matrix" values="0 0 0 0 0 0 0 0 0 0 0 0 0 0 0 0 0 0 127 0" result="hardAlpha"/>
<feOffset dy="3"/>
<feComposite in2="hardAlpha" operator="out"/>
<feColorMatrix type="matrix" values="0 0 0 0 0 0 0 0 0 0 0 0 0 0 0 0 0 0 0.25 0"/>
<feBlend mode="normal" in2="BackgroundImageFix" result="effect1_dropShadow_1085_53648"/>
<feBlend mode="normal" in="SourceGraphic" in2="effect1_dropShadow_1085_53648" result="shape"/>
</filter>
<filter id="filter1_i_1085_53648" x="0" y="0" width="72" height="56" filterUnits="userSpaceOnUse" color-interpolation-filters="sRGB">
<feFlood flood-opacity="0" result="BackgroundImageFix"/>
<feBlend mode="normal" in="SourceGraphic" in2="BackgroundImageFix" result="shape"/>
<feColorMatrix in="SourceAlpha" type="matrix" values="0 0 0 0 0 0 0 0 0 0 0 0 0 0 0 0 0 0 127 0" result="hardAlpha"/>
<feMorphology radius="5" operator="erode" in="SourceAlpha" result="effect1_innerShadow_1085_53648"/>
<feOffset/>
<feComposite in2="hardAlpha" operator="arithmetic" k2="-1" k3="1"/>
<feColorMatrix type="matrix" values="0 0 0 0 1 0 0 0 0 1 0 0 0 0 1 0 0 0 0.1 0"/>
<feBlend mode="normal" in2="shape" result="effect1_innerShadow_1085_53648"/>
</filter>
<filter id="filter2_d_1085_53648" x="24.4234" y="15.5" width="23.6786" height="26.9286" filterUnits="userSpaceOnUse" color-interpolation-filters="sRGB">
<feFlood flood-opacity="0" result="BackgroundImageFix"/>
<feColorMatrix in="SourceAlpha" type="matrix" values="0 0 0 0 0 0 0 0 0 0 0 0 0 0 0 0 0 0 127 0" result="hardAlpha"/>
<feOffset dy="0.464286"/>
<feGaussianBlur stdDeviation="0.232143"/>
<feComposite in2="hardAlpha" operator="out"/>
<feColorMatrix type="matrix" values="0 0 0 0 0.309804 0 0 0 0 0.380392 0 0 0 0 0.831373 0 0 0 1 0"/>
<feBlend mode="normal" in2="BackgroundImageFix" result="effect1_dropShadow_1085_53648"/>
<feBlend mode="normal" in="SourceGraphic" in2="effect1_dropShadow_1085_53648" result="shape"/>
</filter>
<filter id="filter3_d_1085_53648" x="23.7115" y="16.605" width="24.454" height="24.4542" filterUnits="userSpaceOnUse" color-interpolation-filters="sRGB">
<feFlood flood-opacity="0" result="BackgroundImageFix"/>
<feColorMatrix in="SourceAlpha" type="matrix" values="0 0 0 0 0 0 0 0 0 0 0 0 0 0 0 0 0 0 127 0" result="hardAlpha"/>
<feOffset dy="0.464286"/>
<feGaussianBlur stdDeviation="0.232143"/>
<feComposite in2="hardAlpha" operator="out"/>
<feColorMatrix type="matrix" values="0 0 0 0 0.309804 0 0 0 0 0.380392 0 0 0 0 0.831373 0 0 0 1 0"/>
<feBlend mode="normal" in2="BackgroundImageFix" result="effect1_dropShadow_1085_53648"/>
<feBlend mode="normal" in="SourceGraphic" in2="effect1_dropShadow_1085_53648" result="shape"/>
</filter>
<linearGradient id="paint0_linear_1085_53648" x1="36" y1="0" x2="36" y2="56" gradientUnits="userSpaceOnUse">
<stop stop-color="#7684FB"/>
<stop offset="1" stop-color="#7185F9"/>
</linearGradient>
<linearGradient id="paint1_linear_1085_53648" x1="36" y1="5" x2="36" y2="51" gradientUnits="userSpaceOnUse">
<stop stop-color="white"/>
<stop offset="0.447125" stop-color="white" stop-opacity="0"/>
</linearGradient>
<linearGradient id="paint2_linear_1085_53648" x1="36" y1="5" x2="36" y2="51" gradientUnits="userSpaceOnUse">
<stop offset="0.579195" stop-color="#8F50F7" stop-opacity="0"/>
<stop offset="1" stop-color="#454CF4"/>
</linearGradient>
</defs>
</svg>
