<svg width="72" height="65" viewBox="0 0 72 65" fill="none" xmlns="http://www.w3.org/2000/svg">
<g id="Buttons-Cartoon-II/Buttons/Square-Icon-Blue/Music-Off-Idle">
<g id="@Fill/Square-Icon-Blue/Idle">
<g id="Rectangle" filter="url(#filter0_d_1085_53982)">
<rect width="72" height="62" rx="11" fill="#23134D"/>
</g>
<g id="Rectangle_2">
<g filter="url(#filter1_i_1085_53982)">
<rect width="72" height="56" rx="11" fill="url(#paint0_linear_1085_53982)"/>
</g>
<rect x="1.5" y="1.5" width="69" height="53" rx="9.5" stroke="#4B3B75" stroke-width="3"/>
</g>
<rect id="Rectangle_3" x="5.5" y="5.5" width="61" height="45" rx="5.5" stroke="url(#paint1_linear_1085_53982)" stroke-opacity="0.8"/>
<g id="Rectangle_4" style="mix-blend-mode:multiply">
<rect x="5.5" y="5.5" width="61" height="45" rx="5.5" stroke="url(#paint2_linear_1085_53982)" stroke-opacity="0.5"/>
</g>
</g>
<g id="Icon/Music-Off">
<g id="Group">
<g id="Figure" filter="url(#filter2_d_1085_53982)">
<path d="M31.3877 17H47.6377V32.3214H47.6169C47.6307 32.4743 47.6377 32.6292 47.6377 32.7857C47.6377 34.4735 46.819 35.9701 45.557 36.9L38.4163 29.7593C39.3462 28.4973 40.8427 27.6786 42.5306 27.6786C43.0134 27.6786 43.4806 27.7456 43.9234 27.8708V23.5H35.102V26.445L31.3877 22.7307V17Z" fill="white"/>
<path d="M31.3877 27.9835V32.978C30.9449 32.8527 30.4777 32.7857 29.9948 32.7857C27.1742 32.7857 24.8877 35.0723 24.8877 37.8929C24.8877 40.7135 27.1742 43 29.9948 43C32.8154 43 35.102 40.7135 35.102 37.8929C35.102 37.7364 35.0949 37.5815 35.0812 37.4286H35.102V31.6978L31.3877 27.9835Z" fill="white"/>
<path d="M37.6289 34.2247C38.1165 35.8883 39.428 37.1997 41.0915 37.6873L37.6289 34.2247Z" fill="white"/>
</g>
<g id="Rectangle_5" filter="url(#filter3_d_1085_53982)">
<path d="M24.4481 18.3773C24.8107 18.0147 25.3994 18.014 25.762 18.3766L47.4298 40.0444C47.7924 40.407 47.7917 40.9956 47.4291 41.3583C47.0664 41.7209 46.4778 41.7216 46.1152 41.359L24.4474 19.6912C24.0848 19.3286 24.0855 18.7399 24.4481 18.3773Z" fill="white"/>
</g>
</g>
</g>
</g>
<defs>
<filter id="filter0_d_1085_53982" x="0" y="0" width="72" height="65" filterUnits="userSpaceOnUse" color-interpolation-filters="sRGB">
<feFlood flood-opacity="0" result="BackgroundImageFix"/>
<feColorMatrix in="SourceAlpha" type="matrix" values="0 0 0 0 0 0 0 0 0 0 0 0 0 0 0 0 0 0 127 0" result="hardAlpha"/>
<feOffset dy="3"/>
<feComposite in2="hardAlpha" operator="out"/>
<feColorMatrix type="matrix" values="0 0 0 0 0 0 0 0 0 0 0 0 0 0 0 0 0 0 0.25 0"/>
<feBlend mode="normal" in2="BackgroundImageFix" result="effect1_dropShadow_1085_53982"/>
<feBlend mode="normal" in="SourceGraphic" in2="effect1_dropShadow_1085_53982" result="shape"/>
</filter>
<filter id="filter1_i_1085_53982" x="0" y="0" width="72" height="56" filterUnits="userSpaceOnUse" color-interpolation-filters="sRGB">
<feFlood flood-opacity="0" result="BackgroundImageFix"/>
<feBlend mode="normal" in="SourceGraphic" in2="BackgroundImageFix" result="shape"/>
<feColorMatrix in="SourceAlpha" type="matrix" values="0 0 0 0 0 0 0 0 0 0 0 0 0 0 0 0 0 0 127 0" result="hardAlpha"/>
<feMorphology radius="5" operator="erode" in="SourceAlpha" result="effect1_innerShadow_1085_53982"/>
<feOffset/>
<feComposite in2="hardAlpha" operator="arithmetic" k2="-1" k3="1"/>
<feColorMatrix type="matrix" values="0 0 0 0 1 0 0 0 0 1 0 0 0 0 1 0 0 0 0.1 0"/>
<feBlend mode="normal" in2="shape" result="effect1_innerShadow_1085_53982"/>
</filter>
<filter id="filter2_d_1085_53982" x="24.4234" y="17" width="23.6786" height="26.9286" filterUnits="userSpaceOnUse" color-interpolation-filters="sRGB">
<feFlood flood-opacity="0" result="BackgroundImageFix"/>
<feColorMatrix in="SourceAlpha" type="matrix" values="0 0 0 0 0 0 0 0 0 0 0 0 0 0 0 0 0 0 127 0" result="hardAlpha"/>
<feOffset dy="0.464286"/>
<feGaussianBlur stdDeviation="0.232143"/>
<feComposite in2="hardAlpha" operator="out"/>
<feColorMatrix type="matrix" values="0 0 0 0 0.309804 0 0 0 0 0.380392 0 0 0 0 0.831373 0 0 0 1 0"/>
<feBlend mode="normal" in2="BackgroundImageFix" result="effect1_dropShadow_1085_53982"/>
<feBlend mode="normal" in="SourceGraphic" in2="effect1_dropShadow_1085_53982" result="shape"/>
</filter>
<filter id="filter3_d_1085_53982" x="23.7115" y="18.105" width="24.454" height="24.4542" filterUnits="userSpaceOnUse" color-interpolation-filters="sRGB">
<feFlood flood-opacity="0" result="BackgroundImageFix"/>
<feColorMatrix in="SourceAlpha" type="matrix" values="0 0 0 0 0 0 0 0 0 0 0 0 0 0 0 0 0 0 127 0" result="hardAlpha"/>
<feOffset dy="0.464286"/>
<feGaussianBlur stdDeviation="0.232143"/>
<feComposite in2="hardAlpha" operator="out"/>
<feColorMatrix type="matrix" values="0 0 0 0 0.309804 0 0 0 0 0.380392 0 0 0 0 0.831373 0 0 0 1 0"/>
<feBlend mode="normal" in2="BackgroundImageFix" result="effect1_dropShadow_1085_53982"/>
<feBlend mode="normal" in="SourceGraphic" in2="effect1_dropShadow_1085_53982" result="shape"/>
</filter>
<linearGradient id="paint0_linear_1085_53982" x1="36" y1="0" x2="36" y2="56" gradientUnits="userSpaceOnUse">
<stop stop-color="#7684FB"/>
<stop offset="1" stop-color="#7185F9"/>
</linearGradient>
<linearGradient id="paint1_linear_1085_53982" x1="36" y1="5" x2="36" y2="51" gradientUnits="userSpaceOnUse">
<stop stop-color="white"/>
<stop offset="0.447125" stop-color="white" stop-opacity="0"/>
</linearGradient>
<linearGradient id="paint2_linear_1085_53982" x1="36" y1="5" x2="36" y2="51" gradientUnits="userSpaceOnUse">
<stop offset="0.579195" stop-color="#8F50F7" stop-opacity="0"/>
<stop offset="1" stop-color="#454CF4"/>
</linearGradient>
</defs>
</svg>
