<svg width="72" height="62" viewBox="0 0 72 62" fill="none" xmlns="http://www.w3.org/2000/svg">
<g id="Buttons-Cartoon-II/Buttons/Square-Icon-Blue/Question-Click">
<g id="@Fill/Square-Icon-Blue/Click">
<g id="Rectangle" filter="url(#filter0_d_1085_53774)">
<rect width="72" height="59" rx="11" fill="#23134D"/>
</g>
<g id="Rectangle_2">
<g filter="url(#filter1_i_1085_53774)">
<rect width="72" height="56" rx="11" fill="url(#paint0_linear_1085_53774)"/>
</g>
<rect x="1.5" y="1.5" width="69" height="53" rx="9.5" stroke="#4B3B75" stroke-width="3"/>
</g>
<rect id="Rectangle_3" x="5.5" y="5.5" width="61" height="45" rx="5.5" stroke="url(#paint1_linear_1085_53774)" stroke-opacity="0.8"/>
<g id="Rectangle_4" style="mix-blend-mode:multiply">
<rect x="5.5" y="5.5" width="61" height="45" rx="5.5" stroke="url(#paint2_linear_1085_53774)" stroke-opacity="0.5"/>
</g>
</g>
<g id="Icon/Question">
<g id="Group">
<g id="Rectangle_5" filter="url(#filter2_d_1085_53774)">
<path d="M32.75 35.9286C32.75 35.4157 33.1657 35 33.6786 35H37.8571C38.37 35 38.7857 35.4157 38.7857 35.9286V40.5714C38.7857 41.0843 38.37 41.5 37.8571 41.5H33.6786C33.1657 41.5 32.75 41.0843 32.75 40.5714V35.9286Z" fill="white"/>
</g>
<g id="Figure" filter="url(#filter3_d_1085_53774)">
<path d="M36.4643 33.1396C38.0819 33.0947 39.6561 32.5813 41.0042 31.6562C42.4167 30.6869 43.5176 29.3092 44.1677 27.6972C44.8178 26.0853 44.9879 24.3116 44.6565 22.6005C44.325 20.8893 43.507 19.3174 42.3057 18.0837C41.1045 16.85 39.5741 16.0099 37.9079 15.6695C36.2417 15.3291 34.5147 15.5038 32.9452 16.1715C31.3757 16.8392 30.0343 17.9698 29.0905 19.4205C28.3147 20.6129 27.8363 21.9775 27.6905 23.3945C27.638 23.9046 28.0587 24.3214 28.5715 24.3214L31.7021 24.3214C32.2149 24.3214 32.6194 23.8996 32.7437 23.4021C32.8442 22.9997 33.0105 22.6155 33.2376 22.2664C33.6334 21.6582 34.1959 21.1841 34.854 20.9041C35.512 20.6241 36.2362 20.5509 36.9348 20.6936C37.6335 20.8363 38.2752 21.1886 38.7789 21.7059C39.2826 22.2232 39.6256 22.8823 39.7646 23.5998C39.9035 24.3173 39.8322 25.0611 39.5596 25.7369C39.287 26.4128 38.8254 26.9905 38.2331 27.397C37.6409 27.8034 36.9445 28.0357 36.2322 28.0357H33.6786C33.1658 28.0357 32.7501 28.4515 32.7501 28.9643V32.2143C32.7501 32.7271 33.1658 33.1429 33.6786 33.1429H36.4643V33.1396Z" fill="white"/>
</g>
</g>
</g>
</g>
<defs>
<filter id="filter0_d_1085_53774" x="0" y="0" width="72" height="62" filterUnits="userSpaceOnUse" color-interpolation-filters="sRGB">
<feFlood flood-opacity="0" result="BackgroundImageFix"/>
<feColorMatrix in="SourceAlpha" type="matrix" values="0 0 0 0 0 0 0 0 0 0 0 0 0 0 0 0 0 0 127 0" result="hardAlpha"/>
<feOffset dy="3"/>
<feComposite in2="hardAlpha" operator="out"/>
<feColorMatrix type="matrix" values="0 0 0 0 0 0 0 0 0 0 0 0 0 0 0 0 0 0 0.25 0"/>
<feBlend mode="normal" in2="BackgroundImageFix" result="effect1_dropShadow_1085_53774"/>
<feBlend mode="normal" in="SourceGraphic" in2="effect1_dropShadow_1085_53774" result="shape"/>
</filter>
<filter id="filter1_i_1085_53774" x="0" y="0" width="72" height="56" filterUnits="userSpaceOnUse" color-interpolation-filters="sRGB">
<feFlood flood-opacity="0" result="BackgroundImageFix"/>
<feBlend mode="normal" in="SourceGraphic" in2="BackgroundImageFix" result="shape"/>
<feColorMatrix in="SourceAlpha" type="matrix" values="0 0 0 0 0 0 0 0 0 0 0 0 0 0 0 0 0 0 127 0" result="hardAlpha"/>
<feMorphology radius="5" operator="erode" in="SourceAlpha" result="effect1_innerShadow_1085_53774"/>
<feOffset/>
<feComposite in2="hardAlpha" operator="arithmetic" k2="-1" k3="1"/>
<feColorMatrix type="matrix" values="0 0 0 0 1 0 0 0 0 1 0 0 0 0 1 0 0 0 0.1 0"/>
<feBlend mode="normal" in2="shape" result="effect1_innerShadow_1085_53774"/>
</filter>
<filter id="filter2_d_1085_53774" x="32.2857" y="35" width="6.96422" height="7.42857" filterUnits="userSpaceOnUse" color-interpolation-filters="sRGB">
<feFlood flood-opacity="0" result="BackgroundImageFix"/>
<feColorMatrix in="SourceAlpha" type="matrix" values="0 0 0 0 0 0 0 0 0 0 0 0 0 0 0 0 0 0 127 0" result="hardAlpha"/>
<feOffset dy="0.464286"/>
<feGaussianBlur stdDeviation="0.232143"/>
<feComposite in2="hardAlpha" operator="out"/>
<feColorMatrix type="matrix" values="0 0 0 0 0.309804 0 0 0 0 0.380392 0 0 0 0 0.831373 0 0 0 1 0"/>
<feBlend mode="normal" in2="BackgroundImageFix" result="effect1_dropShadow_1085_53774"/>
<feBlend mode="normal" in="SourceGraphic" in2="effect1_dropShadow_1085_53774" result="shape"/>
</filter>
<filter id="filter3_d_1085_53774" x="27.2217" y="15.5" width="18.0638" height="18.5714" filterUnits="userSpaceOnUse" color-interpolation-filters="sRGB">
<feFlood flood-opacity="0" result="BackgroundImageFix"/>
<feColorMatrix in="SourceAlpha" type="matrix" values="0 0 0 0 0 0 0 0 0 0 0 0 0 0 0 0 0 0 127 0" result="hardAlpha"/>
<feOffset dy="0.464286"/>
<feGaussianBlur stdDeviation="0.232143"/>
<feComposite in2="hardAlpha" operator="out"/>
<feColorMatrix type="matrix" values="0 0 0 0 0.309804 0 0 0 0 0.380392 0 0 0 0 0.831373 0 0 0 1 0"/>
<feBlend mode="normal" in2="BackgroundImageFix" result="effect1_dropShadow_1085_53774"/>
<feBlend mode="normal" in="SourceGraphic" in2="effect1_dropShadow_1085_53774" result="shape"/>
</filter>
<linearGradient id="paint0_linear_1085_53774" x1="36" y1="0" x2="36" y2="56" gradientUnits="userSpaceOnUse">
<stop stop-color="#7684FB"/>
<stop offset="1" stop-color="#7185F9"/>
</linearGradient>
<linearGradient id="paint1_linear_1085_53774" x1="36" y1="5" x2="36" y2="51" gradientUnits="userSpaceOnUse">
<stop stop-color="white"/>
<stop offset="0.447125" stop-color="white" stop-opacity="0"/>
</linearGradient>
<linearGradient id="paint2_linear_1085_53774" x1="36" y1="5" x2="36" y2="51" gradientUnits="userSpaceOnUse">
<stop offset="0.579195" stop-color="#8F50F7" stop-opacity="0"/>
<stop offset="1" stop-color="#454CF4"/>
</linearGradient>
</defs>
</svg>
