<svg width="72" height="65" viewBox="0 0 72 65" fill="none" xmlns="http://www.w3.org/2000/svg">
<g id="Buttons-Cartoon-II/Buttons/Square-Icon-Blue/Repeat-Right-Idle">
<g id="@Fill/Square-Icon-Blue/Idle">
<g id="Rectangle" filter="url(#filter0_d_1085_54136)">
<rect width="72" height="62" rx="11" fill="#23134D"/>
</g>
<g id="Rectangle_2">
<g filter="url(#filter1_i_1085_54136)">
<rect width="72" height="56" rx="11" fill="url(#paint0_linear_1085_54136)"/>
</g>
<rect x="1.5" y="1.5" width="69" height="53" rx="9.5" stroke="#4B3B75" stroke-width="3"/>
</g>
<rect id="Rectangle_3" x="5.5" y="5.5" width="61" height="45" rx="5.5" stroke="url(#paint1_linear_1085_54136)" stroke-opacity="0.8"/>
<g id="Rectangle_4" style="mix-blend-mode:multiply">
<rect x="5.5" y="5.5" width="61" height="45" rx="5.5" stroke="url(#paint2_linear_1085_54136)" stroke-opacity="0.5"/>
</g>
</g>
<g id="Icon/Repeat-Right">
<g id="Group">
<g id="Union" filter="url(#filter2_d_1085_54136)">
<path d="M40.978 22.3983C41.4965 22.028 41.4965 21.2574 40.978 20.8871L37.0041 18.0486C36.3896 17.6096 35.5359 18.049 35.5359 18.8042L35.5359 19.7856C33.2402 19.7856 30.9961 20.4663 29.0873 21.7417C27.1785 23.0171 25.6908 24.8299 24.8123 26.9508C23.9337 29.0718 23.7039 31.4056 24.1517 33.6571C24.5996 35.9087 25.7051 37.9769 27.3284 39.6002C28.9517 41.2235 31.0199 42.3289 33.2714 42.7768C35.523 43.2247 37.8568 42.9948 39.9777 42.1163C42.0986 41.2378 43.9114 39.7501 45.1868 37.8413C46.2898 36.1906 46.948 34.2891 47.1059 32.3203C47.1469 31.8091 46.7273 31.3927 46.2144 31.3927H44.3573C43.8444 31.3927 43.4344 31.8099 43.3742 32.3192C43.2284 33.5522 42.7932 34.7381 42.0985 35.7777C41.2312 37.0757 39.9986 38.0874 38.5563 38.6847C37.1141 39.2821 35.5271 39.4384 33.996 39.1339C32.465 38.8293 31.0586 38.0776 29.9548 36.9738C28.8509 35.87 28.0992 34.4636 27.7947 32.9325C27.4901 31.4015 27.6464 29.8145 28.2438 28.3722C28.8412 26.93 29.8528 25.6973 31.1508 24.83C32.4488 23.9627 33.9748 23.4998 35.5359 23.4998L35.5359 24.4812C35.5359 25.2364 36.3896 25.6758 37.0041 25.2368L40.978 22.3983Z" fill="white"/>
</g>
</g>
</g>
</g>
<defs>
<filter id="filter0_d_1085_54136" x="0" y="0" width="72" height="65" filterUnits="userSpaceOnUse" color-interpolation-filters="sRGB">
<feFlood flood-opacity="0" result="BackgroundImageFix"/>
<feColorMatrix in="SourceAlpha" type="matrix" values="0 0 0 0 0 0 0 0 0 0 0 0 0 0 0 0 0 0 127 0" result="hardAlpha"/>
<feOffset dy="3"/>
<feComposite in2="hardAlpha" operator="out"/>
<feColorMatrix type="matrix" values="0 0 0 0 0 0 0 0 0 0 0 0 0 0 0 0 0 0 0.25 0"/>
<feBlend mode="normal" in2="BackgroundImageFix" result="effect1_dropShadow_1085_54136"/>
<feBlend mode="normal" in="SourceGraphic" in2="effect1_dropShadow_1085_54136" result="shape"/>
</filter>
<filter id="filter1_i_1085_54136" x="0" y="0" width="72" height="56" filterUnits="userSpaceOnUse" color-interpolation-filters="sRGB">
<feFlood flood-opacity="0" result="BackgroundImageFix"/>
<feBlend mode="normal" in="SourceGraphic" in2="BackgroundImageFix" result="shape"/>
<feColorMatrix in="SourceAlpha" type="matrix" values="0 0 0 0 0 0 0 0 0 0 0 0 0 0 0 0 0 0 127 0" result="hardAlpha"/>
<feMorphology radius="5" operator="erode" in="SourceAlpha" result="effect1_innerShadow_1085_54136"/>
<feOffset/>
<feComposite in2="hardAlpha" operator="arithmetic" k2="-1" k3="1"/>
<feColorMatrix type="matrix" values="0 0 0 0 1 0 0 0 0 1 0 0 0 0 1 0 0 0 0.1 0"/>
<feBlend mode="normal" in2="shape" result="effect1_innerShadow_1085_54136"/>
</filter>
<filter id="filter2_d_1085_54136" x="23.4644" y="17.874" width="24.1083" height="26.0543" filterUnits="userSpaceOnUse" color-interpolation-filters="sRGB">
<feFlood flood-opacity="0" result="BackgroundImageFix"/>
<feColorMatrix in="SourceAlpha" type="matrix" values="0 0 0 0 0 0 0 0 0 0 0 0 0 0 0 0 0 0 127 0" result="hardAlpha"/>
<feOffset dy="0.464286"/>
<feGaussianBlur stdDeviation="0.232143"/>
<feComposite in2="hardAlpha" operator="out"/>
<feColorMatrix type="matrix" values="0 0 0 0 0.309804 0 0 0 0 0.380392 0 0 0 0 0.831373 0 0 0 1 0"/>
<feBlend mode="normal" in2="BackgroundImageFix" result="effect1_dropShadow_1085_54136"/>
<feBlend mode="normal" in="SourceGraphic" in2="effect1_dropShadow_1085_54136" result="shape"/>
</filter>
<linearGradient id="paint0_linear_1085_54136" x1="36" y1="0" x2="36" y2="56" gradientUnits="userSpaceOnUse">
<stop stop-color="#7684FB"/>
<stop offset="1" stop-color="#7185F9"/>
</linearGradient>
<linearGradient id="paint1_linear_1085_54136" x1="36" y1="5" x2="36" y2="51" gradientUnits="userSpaceOnUse">
<stop stop-color="white"/>
<stop offset="0.447125" stop-color="white" stop-opacity="0"/>
</linearGradient>
<linearGradient id="paint2_linear_1085_54136" x1="36" y1="5" x2="36" y2="51" gradientUnits="userSpaceOnUse">
<stop offset="0.579195" stop-color="#8F50F7" stop-opacity="0"/>
<stop offset="1" stop-color="#454CF4"/>
</linearGradient>
</defs>
</svg>
