<svg width="72" height="65" viewBox="0 0 72 65" fill="none" xmlns="http://www.w3.org/2000/svg">
<g id="Buttons-Cartoon-II/Buttons/Square-Icon-Blue/ShareLink-Idle">
<g id="@Fill/Square-Icon-Blue/Idle">
<g id="Rectangle" filter="url(#filter0_d_1085_54062)">
<rect width="72" height="62" rx="11" fill="#23134D"/>
</g>
<g id="Rectangle_2">
<g filter="url(#filter1_i_1085_54062)">
<rect width="72" height="56" rx="11" fill="url(#paint0_linear_1085_54062)"/>
</g>
<rect x="1.5" y="1.5" width="69" height="53" rx="9.5" stroke="#4B3B75" stroke-width="3"/>
</g>
<rect id="Rectangle_3" x="5.5" y="5.5" width="61" height="45" rx="5.5" stroke="url(#paint1_linear_1085_54062)" stroke-opacity="0.8"/>
<g id="Rectangle_4" style="mix-blend-mode:multiply">
<rect x="5.5" y="5.5" width="61" height="45" rx="5.5" stroke="url(#paint2_linear_1085_54062)" stroke-opacity="0.5"/>
</g>
</g>
<g id="Icon/ShareLink">
<g id="Group">
<g id="Figure" filter="url(#filter2_d_1085_54062)">
<path d="M46.6784 22.1068C46.6784 24.4146 44.8076 26.2854 42.4999 26.2854C41.1228 26.2854 39.9014 25.6193 39.1401 24.5917L33.4227 27.6284C33.5881 28.0781 33.6784 28.564 33.6784 29.0711C33.6784 29.6785 33.5488 30.2556 33.3158 30.7764L39.5409 34.9421C40.2974 34.1834 41.3438 33.7139 42.4999 33.7139C44.8076 33.7139 46.6784 35.5847 46.6784 37.8925C46.6784 40.2003 44.8076 42.0711 42.4999 42.0711C40.1921 42.0711 38.3213 40.2003 38.3213 37.8925C38.3213 37.4102 38.403 36.947 38.5533 36.5159L32.1973 32.2625C31.4694 32.8783 30.528 33.2497 29.4999 33.2497C27.1921 33.2497 25.3213 31.3788 25.3213 29.0711C25.3213 26.7633 27.1921 24.8925 29.4999 24.8925C30.6282 24.8925 31.6521 25.3398 32.404 26.0667L38.3937 22.8853C38.3461 22.6331 38.3213 22.3728 38.3213 22.1068C38.3213 19.799 40.1921 17.9282 42.4999 17.9282C44.8076 17.9282 46.6784 19.799 46.6784 22.1068Z" fill="white"/>
</g>
</g>
</g>
</g>
<defs>
<filter id="filter0_d_1085_54062" x="0" y="0" width="72" height="65" filterUnits="userSpaceOnUse" color-interpolation-filters="sRGB">
<feFlood flood-opacity="0" result="BackgroundImageFix"/>
<feColorMatrix in="SourceAlpha" type="matrix" values="0 0 0 0 0 0 0 0 0 0 0 0 0 0 0 0 0 0 127 0" result="hardAlpha"/>
<feOffset dy="3"/>
<feComposite in2="hardAlpha" operator="out"/>
<feColorMatrix type="matrix" values="0 0 0 0 0 0 0 0 0 0 0 0 0 0 0 0 0 0 0.25 0"/>
<feBlend mode="normal" in2="BackgroundImageFix" result="effect1_dropShadow_1085_54062"/>
<feBlend mode="normal" in="SourceGraphic" in2="effect1_dropShadow_1085_54062" result="shape"/>
</filter>
<filter id="filter1_i_1085_54062" x="0" y="0" width="72" height="56" filterUnits="userSpaceOnUse" color-interpolation-filters="sRGB">
<feFlood flood-opacity="0" result="BackgroundImageFix"/>
<feBlend mode="normal" in="SourceGraphic" in2="BackgroundImageFix" result="shape"/>
<feColorMatrix in="SourceAlpha" type="matrix" values="0 0 0 0 0 0 0 0 0 0 0 0 0 0 0 0 0 0 127 0" result="hardAlpha"/>
<feMorphology radius="5" operator="erode" in="SourceAlpha" result="effect1_innerShadow_1085_54062"/>
<feOffset/>
<feComposite in2="hardAlpha" operator="arithmetic" k2="-1" k3="1"/>
<feColorMatrix type="matrix" values="0 0 0 0 1 0 0 0 0 1 0 0 0 0 1 0 0 0 0.1 0"/>
<feBlend mode="normal" in2="shape" result="effect1_innerShadow_1085_54062"/>
</filter>
<filter id="filter2_d_1085_54062" x="24.857" y="17.9282" width="22.286" height="25.0714" filterUnits="userSpaceOnUse" color-interpolation-filters="sRGB">
<feFlood flood-opacity="0" result="BackgroundImageFix"/>
<feColorMatrix in="SourceAlpha" type="matrix" values="0 0 0 0 0 0 0 0 0 0 0 0 0 0 0 0 0 0 127 0" result="hardAlpha"/>
<feOffset dy="0.464286"/>
<feGaussianBlur stdDeviation="0.232143"/>
<feComposite in2="hardAlpha" operator="out"/>
<feColorMatrix type="matrix" values="0 0 0 0 0.309804 0 0 0 0 0.380392 0 0 0 0 0.831373 0 0 0 1 0"/>
<feBlend mode="normal" in2="BackgroundImageFix" result="effect1_dropShadow_1085_54062"/>
<feBlend mode="normal" in="SourceGraphic" in2="effect1_dropShadow_1085_54062" result="shape"/>
</filter>
<linearGradient id="paint0_linear_1085_54062" x1="36" y1="0" x2="36" y2="56" gradientUnits="userSpaceOnUse">
<stop stop-color="#7684FB"/>
<stop offset="1" stop-color="#7185F9"/>
</linearGradient>
<linearGradient id="paint1_linear_1085_54062" x1="36" y1="5" x2="36" y2="51" gradientUnits="userSpaceOnUse">
<stop stop-color="white"/>
<stop offset="0.447125" stop-color="white" stop-opacity="0"/>
</linearGradient>
<linearGradient id="paint2_linear_1085_54062" x1="36" y1="5" x2="36" y2="51" gradientUnits="userSpaceOnUse">
<stop offset="0.579195" stop-color="#8F50F7" stop-opacity="0"/>
<stop offset="1" stop-color="#454CF4"/>
</linearGradient>
</defs>
</svg>
