<svg width="72" height="65" viewBox="0 0 72 65" fill="none" xmlns="http://www.w3.org/2000/svg">
<g id="Buttons-Cartoon-II/Buttons/Square-Icon-Blue/Sound-One-Idle">
<g id="@Fill/Square-Icon-Blue/Idle">
<g id="Rectangle" filter="url(#filter0_d_1085_54173)">
<rect width="72" height="62" rx="11" fill="#23134D"/>
</g>
<g id="Rectangle_2">
<g filter="url(#filter1_i_1085_54173)">
<rect width="72" height="56" rx="11" fill="url(#paint0_linear_1085_54173)"/>
</g>
<rect x="1.5" y="1.5" width="69" height="53" rx="9.5" stroke="#4B3B75" stroke-width="3"/>
</g>
<rect id="Rectangle_3" x="5.5" y="5.5" width="61" height="45" rx="5.5" stroke="url(#paint1_linear_1085_54173)" stroke-opacity="0.8"/>
<g id="Rectangle_4" style="mix-blend-mode:multiply">
<rect x="5.5" y="5.5" width="61" height="45" rx="5.5" stroke="url(#paint2_linear_1085_54173)" stroke-opacity="0.5"/>
</g>
</g>
<g id="Icon/Sound-One">
<g id="Group">
<g id="Union" filter="url(#filter2_d_1085_54173)">
<path d="M36 40.6832C36 41.5047 34.9998 41.9161 34.4148 41.3352L28.5714 35.5325H23.9286C23.4157 35.5325 23 35.1197 23 34.6104V25.3895C23 24.8802 23.4157 24.4674 23.9286 24.4674H28.5714L34.4148 18.6647C34.9998 18.0839 36 18.4953 36 19.3168V40.6832Z" fill="white"/>
<path d="M38.0629 28.2488C38.1697 28.4141 38.2633 28.5871 38.3426 28.7664C38.5481 29.2311 38.6538 29.7291 38.6538 30.2321C38.6538 30.7351 38.5481 31.2331 38.3426 31.6978C38.2633 31.8771 38.1697 32.0502 38.0629 32.2155C37.781 32.6517 37.7683 33.2327 38.1532 33.5933L38.494 33.9124C38.8789 34.273 39.5101 34.2764 39.833 33.8658C40.1456 33.4681 40.4065 33.0356 40.6091 32.5772C40.9379 31.8337 41.1071 31.0369 41.1071 30.2321C41.1071 29.4274 40.9379 28.6305 40.6091 27.887C40.4065 27.4286 40.1456 26.9961 39.833 26.5984C39.5101 26.1878 38.8789 26.1912 38.494 26.5518L38.1532 26.871C37.7683 27.2315 37.781 27.8125 38.0629 28.2488Z" fill="white"/>
</g>
</g>
</g>
</g>
<defs>
<filter id="filter0_d_1085_54173" x="0" y="0" width="72" height="65" filterUnits="userSpaceOnUse" color-interpolation-filters="sRGB">
<feFlood flood-opacity="0" result="BackgroundImageFix"/>
<feColorMatrix in="SourceAlpha" type="matrix" values="0 0 0 0 0 0 0 0 0 0 0 0 0 0 0 0 0 0 127 0" result="hardAlpha"/>
<feOffset dy="3"/>
<feComposite in2="hardAlpha" operator="out"/>
<feColorMatrix type="matrix" values="0 0 0 0 0 0 0 0 0 0 0 0 0 0 0 0 0 0 0.25 0"/>
<feBlend mode="normal" in2="BackgroundImageFix" result="effect1_dropShadow_1085_54173"/>
<feBlend mode="normal" in="SourceGraphic" in2="effect1_dropShadow_1085_54173" result="shape"/>
</filter>
<filter id="filter1_i_1085_54173" x="0" y="0" width="72" height="56" filterUnits="userSpaceOnUse" color-interpolation-filters="sRGB">
<feFlood flood-opacity="0" result="BackgroundImageFix"/>
<feBlend mode="normal" in="SourceGraphic" in2="BackgroundImageFix" result="shape"/>
<feColorMatrix in="SourceAlpha" type="matrix" values="0 0 0 0 0 0 0 0 0 0 0 0 0 0 0 0 0 0 127 0" result="hardAlpha"/>
<feMorphology radius="5" operator="erode" in="SourceAlpha" result="effect1_innerShadow_1085_54173"/>
<feOffset/>
<feComposite in2="hardAlpha" operator="arithmetic" k2="-1" k3="1"/>
<feColorMatrix type="matrix" values="0 0 0 0 1 0 0 0 0 1 0 0 0 0 1 0 0 0 0.1 0"/>
<feBlend mode="normal" in2="shape" result="effect1_innerShadow_1085_54173"/>
</filter>
<filter id="filter2_d_1085_54173" x="22.5357" y="18.3928" width="19.036" height="24.1429" filterUnits="userSpaceOnUse" color-interpolation-filters="sRGB">
<feFlood flood-opacity="0" result="BackgroundImageFix"/>
<feColorMatrix in="SourceAlpha" type="matrix" values="0 0 0 0 0 0 0 0 0 0 0 0 0 0 0 0 0 0 127 0" result="hardAlpha"/>
<feOffset dy="0.464286"/>
<feGaussianBlur stdDeviation="0.232143"/>
<feComposite in2="hardAlpha" operator="out"/>
<feColorMatrix type="matrix" values="0 0 0 0 0.309804 0 0 0 0 0.380392 0 0 0 0 0.831373 0 0 0 1 0"/>
<feBlend mode="normal" in2="BackgroundImageFix" result="effect1_dropShadow_1085_54173"/>
<feBlend mode="normal" in="SourceGraphic" in2="effect1_dropShadow_1085_54173" result="shape"/>
</filter>
<linearGradient id="paint0_linear_1085_54173" x1="36" y1="0" x2="36" y2="56" gradientUnits="userSpaceOnUse">
<stop stop-color="#7684FB"/>
<stop offset="1" stop-color="#7185F9"/>
</linearGradient>
<linearGradient id="paint1_linear_1085_54173" x1="36" y1="5" x2="36" y2="51" gradientUnits="userSpaceOnUse">
<stop stop-color="white"/>
<stop offset="0.447125" stop-color="white" stop-opacity="0"/>
</linearGradient>
<linearGradient id="paint2_linear_1085_54173" x1="36" y1="5" x2="36" y2="51" gradientUnits="userSpaceOnUse">
<stop offset="0.579195" stop-color="#8F50F7" stop-opacity="0"/>
<stop offset="1" stop-color="#454CF4"/>
</linearGradient>
</defs>
</svg>
