<svg width="72" height="62" viewBox="0 0 72 62" fill="none" xmlns="http://www.w3.org/2000/svg">
<g id="Buttons-Cartoon-II/Buttons/Square-Icon-Blue/Sound-Two-Click">
<g id="@Fill/Square-Icon-Blue/Click">
<g id="Rectangle" filter="url(#filter0_d_1085_53820)">
<rect width="72" height="59" rx="11" fill="#23134D"/>
</g>
<g id="Rectangle_2">
<g filter="url(#filter1_i_1085_53820)">
<rect width="72" height="56" rx="11" fill="url(#paint0_linear_1085_53820)"/>
</g>
<rect x="1.5" y="1.5" width="69" height="53" rx="9.5" stroke="#4B3B75" stroke-width="3"/>
</g>
<rect id="Rectangle_3" x="5.5" y="5.5" width="61" height="45" rx="5.5" stroke="url(#paint1_linear_1085_53820)" stroke-opacity="0.8"/>
<g id="Rectangle_4" style="mix-blend-mode:multiply">
<rect x="5.5" y="5.5" width="61" height="45" rx="5.5" stroke="url(#paint2_linear_1085_53820)" stroke-opacity="0.5"/>
</g>
</g>
<g id="Icon/Sound-Two">
<g id="Group">
<g id="Union" filter="url(#filter2_d_1085_53820)">
<path d="M34.4148 39.8352C34.9998 40.4161 36 40.0047 36 39.1832V17.8168C36 16.9953 34.9998 16.5839 34.4148 17.1647L28.5714 22.9674H23.9286C23.4157 22.9674 23 23.3802 23 23.8895V33.1104C23 33.6197 23.4157 34.0325 23.9286 34.0325H28.5714L34.4148 39.8352Z" fill="white"/>
<path d="M38.3426 27.2664C38.2633 27.0871 38.1697 26.9141 38.0629 26.7488C37.781 26.3125 37.7683 25.7315 38.1532 25.371L38.494 25.0518C38.8789 24.6912 39.5101 24.6878 39.833 25.0984C40.1456 25.4961 40.4065 25.9286 40.6091 26.387C40.9379 27.1305 41.1071 27.9274 41.1071 28.7321C41.1071 29.5369 40.9379 30.3337 40.6091 31.0772C40.4065 31.5356 40.1456 31.9681 39.833 32.3658C39.5101 32.7764 38.8789 32.773 38.494 32.4124L38.1532 32.0933C37.7683 31.7327 37.781 31.1517 38.0629 30.7155C38.1697 30.5502 38.2633 30.3771 38.3426 30.1978C38.5481 29.7331 38.6538 29.2351 38.6538 28.7321C38.6538 28.2291 38.5481 27.7311 38.3426 27.2664Z" fill="white"/>
<path d="M41.7546 25.2366C42.0387 25.6118 42.2768 26.0182 42.4633 26.4478C42.7778 27.172 42.9396 27.9482 42.9396 28.7321C42.9396 29.516 42.7778 30.2922 42.4633 31.0164C42.2768 31.446 42.0387 31.8524 41.7546 32.2276C41.4347 32.6501 41.4279 33.2589 41.8113 33.6247L42.1251 33.9241C42.4839 34.2664 43.0531 34.2697 43.3736 33.8914C43.8909 33.2807 44.3147 32.6012 44.6309 31.873C45.0632 30.8772 45.2857 29.8099 45.2857 28.7321C45.2857 27.6543 45.0632 26.587 44.6309 25.5912C44.3147 24.863 43.8909 24.1835 43.3736 23.5728C43.0531 23.1945 42.4839 23.1978 42.1251 23.5401L41.8113 23.8395C41.4279 24.2053 41.4347 24.8141 41.7546 25.2366Z" fill="white"/>
</g>
</g>
</g>
</g>
<defs>
<filter id="filter0_d_1085_53820" x="0" y="0" width="72" height="62" filterUnits="userSpaceOnUse" color-interpolation-filters="sRGB">
<feFlood flood-opacity="0" result="BackgroundImageFix"/>
<feColorMatrix in="SourceAlpha" type="matrix" values="0 0 0 0 0 0 0 0 0 0 0 0 0 0 0 0 0 0 127 0" result="hardAlpha"/>
<feOffset dy="3"/>
<feComposite in2="hardAlpha" operator="out"/>
<feColorMatrix type="matrix" values="0 0 0 0 0 0 0 0 0 0 0 0 0 0 0 0 0 0 0.25 0"/>
<feBlend mode="normal" in2="BackgroundImageFix" result="effect1_dropShadow_1085_53820"/>
<feBlend mode="normal" in="SourceGraphic" in2="effect1_dropShadow_1085_53820" result="shape"/>
</filter>
<filter id="filter1_i_1085_53820" x="0" y="0" width="72" height="56" filterUnits="userSpaceOnUse" color-interpolation-filters="sRGB">
<feFlood flood-opacity="0" result="BackgroundImageFix"/>
<feBlend mode="normal" in="SourceGraphic" in2="BackgroundImageFix" result="shape"/>
<feColorMatrix in="SourceAlpha" type="matrix" values="0 0 0 0 0 0 0 0 0 0 0 0 0 0 0 0 0 0 127 0" result="hardAlpha"/>
<feMorphology radius="5" operator="erode" in="SourceAlpha" result="effect1_innerShadow_1085_53820"/>
<feOffset/>
<feComposite in2="hardAlpha" operator="arithmetic" k2="-1" k3="1"/>
<feColorMatrix type="matrix" values="0 0 0 0 1 0 0 0 0 1 0 0 0 0 1 0 0 0 0.1 0"/>
<feBlend mode="normal" in2="shape" result="effect1_innerShadow_1085_53820"/>
</filter>
<filter id="filter2_d_1085_53820" x="22.5357" y="16.8928" width="23.2147" height="24.1429" filterUnits="userSpaceOnUse" color-interpolation-filters="sRGB">
<feFlood flood-opacity="0" result="BackgroundImageFix"/>
<feColorMatrix in="SourceAlpha" type="matrix" values="0 0 0 0 0 0 0 0 0 0 0 0 0 0 0 0 0 0 127 0" result="hardAlpha"/>
<feOffset dy="0.464286"/>
<feGaussianBlur stdDeviation="0.232143"/>
<feComposite in2="hardAlpha" operator="out"/>
<feColorMatrix type="matrix" values="0 0 0 0 0.309804 0 0 0 0 0.380392 0 0 0 0 0.831373 0 0 0 1 0"/>
<feBlend mode="normal" in2="BackgroundImageFix" result="effect1_dropShadow_1085_53820"/>
<feBlend mode="normal" in="SourceGraphic" in2="effect1_dropShadow_1085_53820" result="shape"/>
</filter>
<linearGradient id="paint0_linear_1085_53820" x1="36" y1="0" x2="36" y2="56" gradientUnits="userSpaceOnUse">
<stop stop-color="#7684FB"/>
<stop offset="1" stop-color="#7185F9"/>
</linearGradient>
<linearGradient id="paint1_linear_1085_53820" x1="36" y1="5" x2="36" y2="51" gradientUnits="userSpaceOnUse">
<stop stop-color="white"/>
<stop offset="0.447125" stop-color="white" stop-opacity="0"/>
</linearGradient>
<linearGradient id="paint2_linear_1085_53820" x1="36" y1="5" x2="36" y2="51" gradientUnits="userSpaceOnUse">
<stop offset="0.579195" stop-color="#8F50F7" stop-opacity="0"/>
<stop offset="1" stop-color="#454CF4"/>
</linearGradient>
</defs>
</svg>
