<svg width="72" height="65" viewBox="0 0 72 65" fill="none" xmlns="http://www.w3.org/2000/svg">
<g id="Buttons-Cartoon-II/Buttons/Square-Icon-Blue/Sound-None-Idle">
<g id="@Fill/Square-Icon-Blue/Idle">
<g id="Rectangle" filter="url(#filter0_d_1085_54163)">
<rect width="72" height="62" rx="11" fill="#23134D"/>
</g>
<g id="Rectangle_2">
<g filter="url(#filter1_i_1085_54163)">
<rect width="72" height="56" rx="11" fill="url(#paint0_linear_1085_54163)"/>
</g>
<rect x="1.5" y="1.5" width="69" height="53" rx="9.5" stroke="#4B3B75" stroke-width="3"/>
</g>
<rect id="Rectangle_3" x="5.5" y="5.5" width="61" height="45" rx="5.5" stroke="url(#paint1_linear_1085_54163)" stroke-opacity="0.8"/>
<g id="Rectangle_4" style="mix-blend-mode:multiply">
<rect x="5.5" y="5.5" width="61" height="45" rx="5.5" stroke="url(#paint2_linear_1085_54163)" stroke-opacity="0.5"/>
</g>
</g>
<g id="Icon/Sound-None">
<g id="Group">
<g id="Figure" filter="url(#filter2_d_1085_54163)">
<path d="M34.4148 41.415C34.9998 42 36 41.5857 36 40.7584V19.242C36 18.4147 34.9998 18.0004 34.4148 18.5854L28.5714 24.4288H23.9286C23.4157 24.4288 23 24.8445 23 25.3573V34.643C23 35.1559 23.4157 35.5716 23.9286 35.5716H28.5714L34.4148 41.415Z" fill="white"/>
</g>
<g id="Figure_2" filter="url(#filter3_d_1085_54163)">
<path d="M41.9791 27.0452C41.6164 26.6825 41.0285 26.6825 40.6659 27.0452L40.0093 27.7018C39.6466 28.0644 39.6466 28.6523 40.0093 29.015L40.9944 30L40.0094 30.985C39.6468 31.3476 39.6468 31.9356 40.0094 32.2982L40.666 32.9548C41.0286 33.3174 41.6166 33.3174 41.9792 32.9548L42.9642 31.9698L43.9489 32.9546C44.3115 33.3172 44.8994 33.3172 45.2621 32.9546L45.9187 32.298C46.2813 31.9353 46.2813 31.3474 45.9187 30.9848L44.934 30L45.9188 29.0152C46.2814 28.6526 46.2814 28.0646 45.9188 27.702L45.2622 27.0454C44.8996 26.6828 44.3116 26.6828 43.949 27.0454L42.9642 28.0302L41.9791 27.0452Z" fill="white"/>
</g>
</g>
</g>
</g>
<defs>
<filter id="filter0_d_1085_54163" x="0" y="0" width="72" height="65" filterUnits="userSpaceOnUse" color-interpolation-filters="sRGB">
<feFlood flood-opacity="0" result="BackgroundImageFix"/>
<feColorMatrix in="SourceAlpha" type="matrix" values="0 0 0 0 0 0 0 0 0 0 0 0 0 0 0 0 0 0 127 0" result="hardAlpha"/>
<feOffset dy="3"/>
<feComposite in2="hardAlpha" operator="out"/>
<feColorMatrix type="matrix" values="0 0 0 0 0 0 0 0 0 0 0 0 0 0 0 0 0 0 0.25 0"/>
<feBlend mode="normal" in2="BackgroundImageFix" result="effect1_dropShadow_1085_54163"/>
<feBlend mode="normal" in="SourceGraphic" in2="effect1_dropShadow_1085_54163" result="shape"/>
</filter>
<filter id="filter1_i_1085_54163" x="0" y="0" width="72" height="56" filterUnits="userSpaceOnUse" color-interpolation-filters="sRGB">
<feFlood flood-opacity="0" result="BackgroundImageFix"/>
<feBlend mode="normal" in="SourceGraphic" in2="BackgroundImageFix" result="shape"/>
<feColorMatrix in="SourceAlpha" type="matrix" values="0 0 0 0 0 0 0 0 0 0 0 0 0 0 0 0 0 0 127 0" result="hardAlpha"/>
<feMorphology radius="5" operator="erode" in="SourceAlpha" result="effect1_innerShadow_1085_54163"/>
<feOffset/>
<feComposite in2="hardAlpha" operator="arithmetic" k2="-1" k3="1"/>
<feColorMatrix type="matrix" values="0 0 0 0 1 0 0 0 0 1 0 0 0 0 1 0 0 0 0.1 0"/>
<feBlend mode="normal" in2="shape" result="effect1_innerShadow_1085_54163"/>
</filter>
<filter id="filter2_d_1085_54163" x="22.5357" y="18.3115" width="13.9286" height="24.306" filterUnits="userSpaceOnUse" color-interpolation-filters="sRGB">
<feFlood flood-opacity="0" result="BackgroundImageFix"/>
<feColorMatrix in="SourceAlpha" type="matrix" values="0 0 0 0 0 0 0 0 0 0 0 0 0 0 0 0 0 0 127 0" result="hardAlpha"/>
<feOffset dy="0.464286"/>
<feGaussianBlur stdDeviation="0.232143"/>
<feComposite in2="hardAlpha" operator="out"/>
<feColorMatrix type="matrix" values="0 0 0 0 0.309804 0 0 0 0 0.380392 0 0 0 0 0.831373 0 0 0 1 0"/>
<feBlend mode="normal" in2="BackgroundImageFix" result="effect1_dropShadow_1085_54163"/>
<feBlend mode="normal" in="SourceGraphic" in2="effect1_dropShadow_1085_54163" result="shape"/>
</filter>
<filter id="filter3_d_1085_54163" x="39.273" y="26.7732" width="7.3817" height="7.38218" filterUnits="userSpaceOnUse" color-interpolation-filters="sRGB">
<feFlood flood-opacity="0" result="BackgroundImageFix"/>
<feColorMatrix in="SourceAlpha" type="matrix" values="0 0 0 0 0 0 0 0 0 0 0 0 0 0 0 0 0 0 127 0" result="hardAlpha"/>
<feOffset dy="0.464286"/>
<feGaussianBlur stdDeviation="0.232143"/>
<feComposite in2="hardAlpha" operator="out"/>
<feColorMatrix type="matrix" values="0 0 0 0 0.309804 0 0 0 0 0.380392 0 0 0 0 0.831373 0 0 0 1 0"/>
<feBlend mode="normal" in2="BackgroundImageFix" result="effect1_dropShadow_1085_54163"/>
<feBlend mode="normal" in="SourceGraphic" in2="effect1_dropShadow_1085_54163" result="shape"/>
</filter>
<linearGradient id="paint0_linear_1085_54163" x1="36" y1="0" x2="36" y2="56" gradientUnits="userSpaceOnUse">
<stop stop-color="#7684FB"/>
<stop offset="1" stop-color="#7185F9"/>
</linearGradient>
<linearGradient id="paint1_linear_1085_54163" x1="36" y1="5" x2="36" y2="51" gradientUnits="userSpaceOnUse">
<stop stop-color="white"/>
<stop offset="0.447125" stop-color="white" stop-opacity="0"/>
</linearGradient>
<linearGradient id="paint2_linear_1085_54163" x1="36" y1="5" x2="36" y2="51" gradientUnits="userSpaceOnUse">
<stop offset="0.579195" stop-color="#8F50F7" stop-opacity="0"/>
<stop offset="1" stop-color="#454CF4"/>
</linearGradient>
</defs>
</svg>
