<svg width="72" height="65" viewBox="0 0 72 65" fill="none" xmlns="http://www.w3.org/2000/svg">
<g id="Buttons-Cartoon-II/Buttons/Square-Icon-Blue/Thumb-Down-Idle">
<g id="@Fill/Square-Icon-Blue/Idle">
<g id="Rectangle" filter="url(#filter0_d_1085_54234)">
<rect width="72" height="62" rx="11" fill="#23134D"/>
</g>
<g id="Rectangle_2">
<g filter="url(#filter1_i_1085_54234)">
<rect width="72" height="56" rx="11" fill="url(#paint0_linear_1085_54234)"/>
</g>
<rect x="1.5" y="1.5" width="69" height="53" rx="9.5" stroke="#4B3B75" stroke-width="3"/>
</g>
<rect id="Rectangle_3" x="5.5" y="5.5" width="61" height="45" rx="5.5" stroke="url(#paint1_linear_1085_54234)" stroke-opacity="0.8"/>
<g id="Rectangle_4" style="mix-blend-mode:multiply">
<rect x="5.5" y="5.5" width="61" height="45" rx="5.5" stroke="url(#paint2_linear_1085_54234)" stroke-opacity="0.5"/>
</g>
</g>
<g id="Icon/Thumb-Down">
<g id="Group">
<g id="Rectangle_5" filter="url(#filter2_d_1085_54234)">
<path d="M23 31.8572C23 32.37 23.4157 32.7858 23.9286 32.7858H29.5C30.0128 32.7858 30.4286 32.37 30.4286 31.8572V18.3929C30.4286 17.8801 30.0128 17.4644 29.5 17.4644H23.9286C23.4157 17.4644 23 17.8801 23 18.3929V31.8572Z" fill="white"/>
</g>
<g id="Figure" filter="url(#filter3_d_1085_54234)">
<path d="M40.9809 40.1628C40.9066 43.5952 36.2693 43.0462 36.338 40.1628L36.3392 40.1142C36.4084 37.2184 36.5378 31.8056 30.7666 31.8056H31.5154C31.1528 31.6792 30.8925 31.3343 30.8925 30.9285V19.3214C30.8925 18.8086 31.3083 18.3928 31.8211 18.3928H48.0711C48.5839 18.3928 48.9997 18.8086 48.9997 19.3214V30.9285C48.9997 31.4414 48.5839 31.8571 48.0711 31.8571H40.9816C40.9892 32.3894 41.0507 36.9356 40.9809 40.1628Z" fill="white"/>
</g>
</g>
</g>
</g>
<defs>
<filter id="filter0_d_1085_54234" x="0" y="0" width="72" height="65" filterUnits="userSpaceOnUse" color-interpolation-filters="sRGB">
<feFlood flood-opacity="0" result="BackgroundImageFix"/>
<feColorMatrix in="SourceAlpha" type="matrix" values="0 0 0 0 0 0 0 0 0 0 0 0 0 0 0 0 0 0 127 0" result="hardAlpha"/>
<feOffset dy="3"/>
<feComposite in2="hardAlpha" operator="out"/>
<feColorMatrix type="matrix" values="0 0 0 0 0 0 0 0 0 0 0 0 0 0 0 0 0 0 0.25 0"/>
<feBlend mode="normal" in2="BackgroundImageFix" result="effect1_dropShadow_1085_54234"/>
<feBlend mode="normal" in="SourceGraphic" in2="effect1_dropShadow_1085_54234" result="shape"/>
</filter>
<filter id="filter1_i_1085_54234" x="0" y="0" width="72" height="56" filterUnits="userSpaceOnUse" color-interpolation-filters="sRGB">
<feFlood flood-opacity="0" result="BackgroundImageFix"/>
<feBlend mode="normal" in="SourceGraphic" in2="BackgroundImageFix" result="shape"/>
<feColorMatrix in="SourceAlpha" type="matrix" values="0 0 0 0 0 0 0 0 0 0 0 0 0 0 0 0 0 0 127 0" result="hardAlpha"/>
<feMorphology radius="5" operator="erode" in="SourceAlpha" result="effect1_innerShadow_1085_54234"/>
<feOffset/>
<feComposite in2="hardAlpha" operator="arithmetic" k2="-1" k3="1"/>
<feColorMatrix type="matrix" values="0 0 0 0 1 0 0 0 0 1 0 0 0 0 1 0 0 0 0.1 0"/>
<feBlend mode="normal" in2="shape" result="effect1_innerShadow_1085_54234"/>
</filter>
<filter id="filter2_d_1085_54234" x="22.5357" y="17.4644" width="8.35728" height="16.2501" filterUnits="userSpaceOnUse" color-interpolation-filters="sRGB">
<feFlood flood-opacity="0" result="BackgroundImageFix"/>
<feColorMatrix in="SourceAlpha" type="matrix" values="0 0 0 0 0 0 0 0 0 0 0 0 0 0 0 0 0 0 127 0" result="hardAlpha"/>
<feOffset dy="0.464286"/>
<feGaussianBlur stdDeviation="0.232143"/>
<feComposite in2="hardAlpha" operator="out"/>
<feColorMatrix type="matrix" values="0 0 0 0 0.309804 0 0 0 0 0.380392 0 0 0 0 0.831373 0 0 0 1 0"/>
<feBlend mode="normal" in2="BackgroundImageFix" result="effect1_dropShadow_1085_54234"/>
<feBlend mode="normal" in="SourceGraphic" in2="effect1_dropShadow_1085_54234" result="shape"/>
</filter>
<filter id="filter3_d_1085_54234" x="30.3023" y="18.3928" width="19.162" height="25.0714" filterUnits="userSpaceOnUse" color-interpolation-filters="sRGB">
<feFlood flood-opacity="0" result="BackgroundImageFix"/>
<feColorMatrix in="SourceAlpha" type="matrix" values="0 0 0 0 0 0 0 0 0 0 0 0 0 0 0 0 0 0 127 0" result="hardAlpha"/>
<feOffset dy="0.464286"/>
<feGaussianBlur stdDeviation="0.232143"/>
<feComposite in2="hardAlpha" operator="out"/>
<feColorMatrix type="matrix" values="0 0 0 0 0.309804 0 0 0 0 0.380392 0 0 0 0 0.831373 0 0 0 1 0"/>
<feBlend mode="normal" in2="BackgroundImageFix" result="effect1_dropShadow_1085_54234"/>
<feBlend mode="normal" in="SourceGraphic" in2="effect1_dropShadow_1085_54234" result="shape"/>
</filter>
<linearGradient id="paint0_linear_1085_54234" x1="36" y1="0" x2="36" y2="56" gradientUnits="userSpaceOnUse">
<stop stop-color="#7684FB"/>
<stop offset="1" stop-color="#7185F9"/>
</linearGradient>
<linearGradient id="paint1_linear_1085_54234" x1="36" y1="5" x2="36" y2="51" gradientUnits="userSpaceOnUse">
<stop stop-color="white"/>
<stop offset="0.447125" stop-color="white" stop-opacity="0"/>
</linearGradient>
<linearGradient id="paint2_linear_1085_54234" x1="36" y1="5" x2="36" y2="51" gradientUnits="userSpaceOnUse">
<stop offset="0.579195" stop-color="#8F50F7" stop-opacity="0"/>
<stop offset="1" stop-color="#454CF4"/>
</linearGradient>
</defs>
</svg>
